<?xml version="1.0" encoding="UTF-8"?>
<svg width="22px" height="29px" viewBox="0 0 22 29" version="1.1" xmlns="http://www.w3.org/2000/svg" xmlns:xlink="http://www.w3.org/1999/xlink">
    <!-- Generator: Sketch 52.4 (67378) - http://www.bohemiancoding.com/sketch -->
    <title>icon-Top10User</title>
    <desc>Created with Sketch.</desc>
    <g id="Page-1" stroke="none" stroke-width="1" fill="none" fill-rule="evenodd">
        <g id="DSX-TechDog-Project---Dashboard" transform="translate(-1173.000000, -583.000000)" fill="#00ABC5">
            <g id="icon-Top10User" transform="translate(1173.000000, 583.000000)">
                <path d="M10.7929961,13.9198234 C13.9273144,13.9198234 16.4684206,10.8037958 16.4684206,6.95995234 C16.4684206,3.1160276 15.6341381,0 10.7929961,0 C5.95185409,0 5.11741051,3.1160276 5.11741051,6.95995234 C5.11741051,10.8037958 7.65851673,13.9198234 10.7929961,13.9198234 Z" id="Path"></path>
                <path d="M0.0830775915,24.5467477 C0.0818775915,24.3123829 0.0806775915,24.4807157 0.0830775915,24.5467477 Z" id="Path"></path>
                <path d="M21.5218253,24.7297995 C21.5256253,24.6656378 21.5231253,24.2846527 21.5218253,24.7297995 Z" id="Path"></path>
                <path d="M21.5002121,24.2657051 C21.3951012,17.5696368 20.528923,15.6616208 13.9006541,14.4538531 C13.9006541,14.4538531 12.9676237,15.6542207 10.7929156,15.6542207 C8.61820739,15.6542207 7.68501595,14.4538531 7.68501595,14.4538531 C1.12907626,15.648447 0.21022179,17.5281635 0.0894046693,24.0481735 C0.0794976654,24.5805769 0.0749066148,24.608551 0.0731346304,24.5467477 C0.0735373541,24.6625477 0.0740206226,24.8767451 0.0740206226,25.2502488 C0.0740206226,25.2502488 1.65205331,28.4620716 10.7929156,28.4620716 C19.9336167,28.4620716 21.5118105,25.2502488 21.5118105,25.2502488 C21.5118105,25.0102729 21.5119716,24.8434038 21.5122132,24.7298808 C21.5104412,24.7681013 21.5068973,24.6940186 21.5002121,24.2657051 Z" id="Path"></path>
            </g>
        </g>
    </g>
</svg>