<?xml version="1.0" encoding="UTF-8"?>
<svg width="16px" height="16px" viewBox="0 0 16 16" version="1.1" xmlns="http://www.w3.org/2000/svg" xmlns:xlink="http://www.w3.org/1999/xlink">
    <!-- Generator: Sketch 52.4 (67378) - http://www.bohemiancoding.com/sketch -->
    <title>icon-search</title>
    <desc>Created with Sketch.</desc>
    <g id="Page-1" stroke="none" stroke-width="1" fill="none" fill-rule="evenodd">
        <g id="DSX-TechDog-Project---Users-(User-Lists)" transform="translate(-619.000000, -282.000000)" fill="#00ABC5" fill-rule="nonzero">
            <g id="icon-search" transform="translate(619.000000, 282.000000)">
                <path d="M15.8040816,14.8636735 L11.957551,11.0171429 C12.9110204,9.85469388 13.4857143,8.36571429 13.4857143,6.74285714 C13.4857143,3.02040816 10.4653061,0 6.74285714,0 C3.01714286,0 0,3.02040816 0,6.74285714 C0,10.4653061 3.01714286,13.4857143 6.74285714,13.4857143 C8.36571429,13.4857143 9.85142857,12.9142857 11.0138776,11.9608163 L14.8604082,15.8040816 C15.1216327,16.0653061 15.5428571,16.0653061 15.8040816,15.8040816 C16.0653061,15.5461224 16.0653061,15.1216327 15.8040816,14.8636735 Z M6.74285714,12.1436735 C3.76163265,12.1436735 1.33877551,9.72081633 1.33877551,6.74285714 C1.33877551,3.76489796 3.76163265,1.33877551 6.74285714,1.33877551 C9.72081633,1.33877551 12.1469388,3.76489796 12.1469388,6.74285714 C12.1469388,9.72081633 9.72081633,12.1436735 6.74285714,12.1436735 Z" id="Shape"></path>
            </g>
        </g>
    </g>
</svg>