<?xml version="1.0" encoding="UTF-8"?>
<svg width="12px" height="17px" viewBox="0 0 12 17" version="1.1" xmlns="http://www.w3.org/2000/svg" xmlns:xlink="http://www.w3.org/1999/xlink">
    <!-- Generator: Sketch 52.4 (67378) - http://www.bohemiancoding.com/sketch -->
    <title>icon-perm</title>
    <desc>Created with Sketch.</desc>
    <g id="Page-1" stroke="none" stroke-width="1" fill="none" fill-rule="evenodd">
        <g id="DSX-TechDog-Project---Dashboard" transform="translate(-107.000000, -294.000000)" fill="#DBDBDB" fill-rule="nonzero">
            <g id="icon-perm" transform="translate(107.000000, 294.000000)">
                <path d="M11.6571429,4.18467143 L10.1650286,4.18467143 L10.1650286,1.18708571 C10.1650286,0.532342857 9.63341429,0 8.9624,0 C8.3096,0 7.77774286,0.532342857 7.77774286,1.18708571 L7.77774286,4.18491429 L4.49504286,4.18491429 L4.49504286,1.18708571 C4.49504286,0.532342857 3.96342857,0 3.29241429,0 C2.63937143,0 2.10775714,0.532342857 2.10775714,1.18708571 L2.10775714,4.18491429 L0.317171429,4.18491429 C0.152271429,4.18467143 0.0187,4.31848571 0.0187,4.48362857 L0.0187,9.45321429 C0.0187,10.5040571 0.8721,11.3589143 1.92124286,11.3589143 L4.2177,11.3589143 C4.20531429,11.3919429 4.19657143,11.4261857 4.19657143,11.4638286 L4.19657143,16.5329857 C4.19657143,16.6983714 4.33014286,16.8317 4.49504286,16.8317 C4.65994286,16.8317 4.79351429,16.6978857 4.79351429,16.5329857 L4.79351429,11.4633429 C4.79351429,11.4261857 4.78477143,11.3914571 4.77238571,11.3586714 L7.20168571,11.3586714 C7.18954286,11.3914571 7.1808,11.4257 7.1808,11.4633429 L7.1808,14.7387571 C7.1808,14.9043857 7.31412857,15.0374714 7.47927143,15.0374714 C7.64392857,15.0374714 7.77774286,14.9039 7.77774286,14.7387571 L7.77774286,11.4633429 C7.77774286,11.4261857 7.769,11.3914571 7.75685714,11.3586714 L10.0530714,11.3586714 C11.1022143,11.3586714 11.9556143,10.5035714 11.9556143,9.45272857 L11.9556143,4.48362857 C11.9556143,4.31848571 11.8225286,4.18467143 11.6571429,4.18467143 Z M8.37444286,1.18708571 C8.37444286,0.862385714 8.63818571,0.597914286 8.98012857,0.597914286 C9.3041,0.597914286 9.56784286,0.862385714 9.56784286,1.18708571 L9.56784286,4.18491429 L8.37444286,4.18491429 L8.37444286,1.18708571 Z M2.7047,1.18708571 C2.7047,0.862385714 2.96844286,0.597914286 3.31062857,0.597914286 C3.6346,0.597914286 3.89834286,0.862385714 3.89834286,1.18708571 L3.89834286,4.18491429 L2.7047,4.18491429 L2.7047,1.18708571 Z M11.3586714,9.45321429 C11.3586714,10.1745 10.7731429,10.7612429 10.0533143,10.7612429 L1.92124286,10.7612429 C1.20141429,10.7612429 0.615642857,10.1745 0.615642857,9.45321429 L0.615642857,4.78258571 L11.3584286,4.78258571 L11.3584286,9.45321429 L11.3586714,9.45321429 Z" id="Shape"></path>
            </g>
        </g>
    </g>
</svg>