<?xml version="1.0" encoding="UTF-8"?>
<svg width="16px" height="15px" viewBox="0 0 16 15" version="1.1" xmlns="http://www.w3.org/2000/svg" xmlns:xlink="http://www.w3.org/1999/xlink">
    <!-- Generator: Sketch 52.4 (67378) - http://www.bohemiancoding.com/sketch -->
    <title>icon-user-Active</title>
    <desc>Created with Sketch.</desc>
    <g id="Page-1" stroke="none" stroke-width="1" fill="none" fill-rule="evenodd">
        <g id="DSX-TechDog-Project---Dashboard" transform="translate(-106.000000, -186.000000)" fill="#FDFDFF" fill-rule="nonzero">
            <g id="icon-user-Active" transform="translate(106.000000, 186.000000)">
                <path d="M15.3536538,12.3634615 L14.6578846,10.9523077 C14.1729808,9.96836538 12.9660577,9.37067308 12.0242308,9.28817308 C11.6922115,9.25961538 11.0633654,9.14855769 10.5291346,9.02278846 C10.1004808,8.92211538 9.85125,8.84307692 9.71307692,8.79173077 C9.74682692,8.66740385 9.80913462,8.54278846 9.90346154,8.41326923 C10.9658654,7.57788462 11.5981731,6.18403846 11.5981731,4.67538462 C11.5981731,2.19836538 9.88817308,0.183461538 7.78701923,0.183461538 C5.68586538,0.183461538 3.97586538,2.19865385 3.97586538,4.67567308 C3.97586538,6.18519231 4.60846154,7.57817308 5.67,8.41413462 C5.76317308,8.53903846 5.82778846,8.66653846 5.86240385,8.79692308 C5.72105769,8.85115385 5.46923077,8.93221154 5.03451923,9.03346154 C4.43625,9.17221154 3.83048077,9.28326923 3.52557692,9.30894231 C2.61230769,9.38711538 1.37971154,10.0044231 0.889615385,10.9975962 L0.196442308,12.4459615 C-0.0625961538,12.9700962 -0.0654807692,13.5741346 0.189519231,13.9846154 C0.501634615,14.4879808 0.989711538,14.7891346 1.49567308,14.7891346 L14.0541346,14.7891346 C14.5586538,14.7891346 15.0464423,14.4888462 15.36,13.9846154 C15.6167308,13.5726923 15.6135577,12.8904808 15.3536538,12.3634615 Z M14.7576923,13.6104808 C14.6172115,13.8369231 14.3575962,14.0798077 14.0541346,14.0798077 L1.49567308,14.0798077 C1.19076923,14.0798077 0.932307692,13.8377885 0.791826923,13.6110577 C0.669230769,13.4140385 0.686826923,13.0563462 0.833942308,12.7575 L1.52711538,11.3088462 C1.88653846,10.5804808 2.85576923,10.08 3.58586538,10.0168269 C3.99923077,9.98221154 4.71115385,9.83798077 5.19548077,9.72548077 C6.22298077,9.48576923 6.41394231,9.32307692 6.47653846,9.27 C6.55730769,9.20076923 6.60317308,9.09865385 6.60115385,8.99192308 C6.59336538,8.62096154 6.45951923,8.26846154 6.20769231,7.94884615 C6.18836538,7.92259615 6.16557692,7.89980769 6.13903846,7.88048077 C5.22894231,7.18125 4.68519231,5.98384615 4.68519231,4.67625 C4.68519231,2.59096154 6.07673077,0.894519231 7.78759615,0.894519231 C9.49875,0.894519231 10.8894231,2.59096154 10.8894231,4.67596154 C10.8894231,5.98326923 10.3459615,7.18096154 9.43557692,7.87846154 C9.41221154,7.89634615 9.39,7.91971154 9.37182692,7.94278846 C9.11567308,8.26557692 8.98211538,8.61721154 8.97375,8.98730769 C8.97173077,9.09346154 9.01644231,9.19528846 9.09634615,9.26336538 C9.15663462,9.31586538 9.33951923,9.47423077 10.3673077,9.71538462 C10.9300962,9.84721154 11.6016346,9.96490385 11.9630769,9.99634615 C12.6989423,10.0606731 13.6701923,10.5536538 14.0221154,11.2675962 L14.7178846,12.67875 C14.8788462,13.0055769 14.8684615,13.4327885 14.7576923,13.6104808 Z" id="Shape"></path>
            </g>
        </g>
    </g>
</svg>