<?xml version="1.0" encoding="UTF-8"?>
<svg width="14px" height="10px" viewBox="0 0 14 10" version="1.1" xmlns="http://www.w3.org/2000/svg" xmlns:xlink="http://www.w3.org/1999/xlink">
    <!-- Generator: Sketch 52.4 (67378) - http://www.bohemiancoding.com/sketch -->
    <title>icon-Check</title>
    <desc>Created with Sketch.</desc>
    <g id="Page-1" stroke="none" stroke-width="1" fill="none" fill-rule="evenodd">
        <g id="DSX-TechDog-Project---Users-(User-Lists)" transform="translate(-1095.000000, -502.000000)" fill="#4BC159">
            <g id="Validity" transform="translate(1059.000000, 320.000000)">
                <path d="M49.5960342,183.380426 L48.3811678,182.235658 C48.2145883,182.078572 48.0119959,182 47.7738598,182 C47.5355047,182 47.3329122,182.078572 47.1663327,182.235658 L41.3062014,187.765999 L38.6798836,185.28279 C38.5131163,185.125645 38.310649,185.047161 38.072513,185.047161 C37.8342204,185.047161 37.6317531,185.125645 37.4649859,185.28279 L36.2501195,186.427587 C36.0833523,186.584702 36,186.775546 36,187.000059 C36,187.224395 36.0833523,187.415416 36.2501195,187.572502 L39.483808,190.619545 L40.6987682,191.764313 C40.8654415,191.921516 41.0679714,192 41.3062014,192 C41.5443374,192 41.7468673,191.92131 41.9136345,191.764313 L43.1285635,190.619545 L49.5960342,184.525282 C49.7626449,184.368137 49.8461537,184.177323 49.8461537,183.952809 C49.8462789,183.728414 49.7626449,183.53757 49.5960342,183.380426 Z" id="icon-Check"></path>
            </g>
        </g>
    </g>
</svg>