<?xml version="1.0" encoding="UTF-8"?>
<svg width="17px" height="17px" viewBox="0 0 17 17" version="1.1" xmlns="http://www.w3.org/2000/svg" xmlns:xlink="http://www.w3.org/1999/xlink">
    <!-- Generator: Sketch 52.4 (67378) - http://www.bohemiancoding.com/sketch -->
    <title>icon-Calendar</title>
    <desc>Created with Sketch.</desc>
    <g id="Page-1" stroke="none" stroke-width="1" fill="none" fill-rule="evenodd">
        <g id="DSX-TechDog-Project---Session-(Online-Sessions)" transform="translate(-355.000000, -250.000000)" fill="#00ABC5">
            <g id="icon-Calendar" transform="translate(355.000000, 250.000000)">
                <path d="M6.00923926,9.3625501 C6.00923926,9.14996319 5.83680573,8.97773824 5.62404499,8.97773824 L4.27986299,8.97773824 C4.0673456,8.97773824 3.8948773,9.14996319 3.8948773,9.3625501 L3.8948773,10.7065583 C3.8948773,10.9194233 4.0673456,11.0917178 4.27986299,11.0917178 L5.62404499,11.0917178 C5.83680573,11.0917178 6.00923926,10.9194233 6.00923926,10.7065583 L6.00923926,9.3625501 Z" id="Path"></path>
                <path d="M9.36852965,9.3625501 C9.36852965,9.14996319 9.19606135,8.97773824 8.98371779,8.97773824 L7.63936196,8.97773824 C7.42684458,8.97773824 7.25437628,9.14996319 7.25437628,9.3625501 L7.25437628,10.7065583 C7.25437628,10.9194233 7.42684458,11.0917178 7.63936196,11.0917178 L8.98371779,11.0917178 C9.19606135,11.0917178 9.36852965,10.9194233 9.36852965,10.7065583 L9.36852965,9.3625501 Z" id="Path"></path>
                <path d="M12.7279939,9.3625501 C12.7279939,9.14996319 12.5555256,8.97773824 12.3430082,8.97773824 L10.9988262,8.97773824 C10.7860654,8.97773824 10.6136319,9.14996319 10.6136319,9.3625501 L10.6136319,10.7065583 C10.6136319,10.9194233 10.7860654,11.0917178 10.9988262,11.0917178 L12.3430082,11.0917178 C12.5555256,11.0917178 12.7279939,10.9194233 12.7279939,10.7065583 L12.7279939,9.3625501 Z" id="Path"></path>
                <path d="M6.00923926,12.7221881 C6.00923926,12.5092536 5.83680573,12.3371677 5.62404499,12.3371677 L4.27986299,12.3371677 C4.0673456,12.3371677 3.8948773,12.5092536 3.8948773,12.7221881 L3.8948773,14.065953 C3.8948773,14.2786789 4.0673456,14.4509387 4.27986299,14.4509387 L5.62404499,14.4509387 C5.83680573,14.4509387 6.00923926,14.2786442 6.00923926,14.065953 L6.00923926,12.7221881 Z" id="Path"></path>
                <path d="M9.36852965,12.7221881 C9.36852965,12.5092536 9.19606135,12.3371677 8.98371779,12.3371677 L7.63936196,12.3371677 C7.42684458,12.3371677 7.25437628,12.5092536 7.25437628,12.7221881 L7.25437628,14.065953 C7.25437628,14.2786789 7.42684458,14.4509387 7.63936196,14.4509387 L8.98371779,14.4509387 C9.19606135,14.4509387 9.36852965,14.2786442 9.36852965,14.065953 L9.36852965,12.7221881 Z" id="Path"></path>
                <path d="M12.7279939,12.7221881 C12.7279939,12.5092536 12.5555256,12.3371677 12.343182,12.3371677 L10.9988262,12.3371677 C10.7860654,12.3371677 10.6136319,12.5092536 10.6136319,12.7221881 L10.6136319,14.065953 C10.6136319,14.2786789 10.7860654,14.4509387 10.9988262,14.4509387 L12.343182,14.4509387 C12.5555256,14.4509387 12.7279939,14.2786442 12.7279939,14.065953 L12.7279939,12.7221881 Z" id="Path"></path>
                <path d="M15.1315297,1.88960736 L15.1315297,3.94247035 C15.1315297,4.87034356 14.3788016,5.61806544 13.4510675,5.61806544 L12.3909836,5.61806544 C11.46318,5.61806544 10.7004744,4.87034356 10.7004744,3.94247035 L10.7004744,1.88223722 L5.92239673,1.88223722 L5.92239673,3.94247035 C5.92239673,4.87034356 5.15972597,5.61806544 4.23206135,5.61806544 L3.17176892,5.61806544 C2.24406953,5.61806544 1.49137628,4.87034356 1.49137628,3.94247035 L1.49137628,1.88960736 C0.680556237,1.91404703 0.0142883436,2.58497342 0.0142883436,3.40962986 L0.0142883436,15.4403804 C0.0142883436,16.2805419 0.695261759,16.9705542 1.53542331,16.9705542 L15.0874479,16.9705542 C15.9263579,16.9705542 16.6085828,16.2791166 16.6085828,15.4403804 L16.6085828,3.40962986 C16.6085828,2.58497342 15.9423497,1.91404703 15.1315297,1.88960736 Z M14.6391554,14.6911984 C14.6391554,15.0542822 14.3447669,15.3488446 13.981544,15.3488446 L2.6123681,15.3488446 C2.24914519,15.3488446 1.95475665,15.0542822 1.95475665,14.6911984 L1.95475665,8.47688139 C1.95475665,8.11365849 2.24911043,7.81909611 2.6123681,7.81909611 L13.9815092,7.81909611 C14.3447321,7.81909611 14.6391207,8.11365849 14.6391207,8.47688139 L14.6391554,14.6911984 Z" id="Shape" fill-rule="nonzero"></path>
                <path d="M3.16804908,4.51751534 L4.21662577,4.51751534 C4.53489775,4.51751534 4.79295706,4.25983845 4.79295706,3.94156646 L4.79295706,0.576157464 C4.79295706,0.257850716 4.53489775,0 4.21662577,0 L3.16804908,0 C2.84974233,0 2.59171779,0.257850716 2.59171779,0.576157464 L2.59171779,3.94156646 C2.59171779,4.25983845 2.84974233,4.51751534 3.16804908,4.51751534 Z" id="Path"></path>
                <path d="M12.3774949,4.51751534 L13.4260716,4.51751534 C13.744135,4.51751534 14.0021943,4.25983845 14.0021943,3.94156646 L14.0021943,0.576157464 C14.002229,0.257850716 13.7441697,0 13.4260716,0 L12.3774949,0 C12.0592577,0 11.8011984,0.257850716 11.8011984,0.576157464 L11.8011984,3.94156646 C11.8011984,4.25983845 12.0592577,4.51751534 12.3774949,4.51751534 Z" id="Path"></path>
            </g>
        </g>
    </g>
</svg>