<?xml version="1.0" encoding="UTF-8"?>
<svg width="37px" height="28px" viewBox="0 0 37 28" version="1.1" xmlns="http://www.w3.org/2000/svg" xmlns:xlink="http://www.w3.org/1999/xlink">
    <!-- Generator: Sketch 52.4 (67378) - http://www.bohemiancoding.com/sketch -->
    <title>icon-userz</title>
    <desc>Created with Sketch.</desc>
    <g id="Page-1" stroke="none" stroke-width="1" fill="none" fill-rule="evenodd">
        <g id="DSX-TechDog-Project---Dashboard" transform="translate(-351.000000, -225.000000)" fill="#00ABC5">
            <g id="Total-Number-of-Users" transform="translate(329.000000, 176.000000)">
                <g id="icon-userz" transform="translate(22.000000, 49.000000)">
                    <path d="M13.0588235,3.72432432 C12.0431373,5.2 11.8980392,7.16756757 11.8980392,8.71351351 C11.8980392,9.83783784 12.1156863,10.8918919 12.5509804,11.8756757 C11.8254902,12.2972973 10.954902,12.5783784 10.0843137,12.5783784 C7.10980392,12.5783784 4.71568627,9.76756757 4.71568627,6.32432432 C4.71568627,2.81081081 5.51372549,0 10.0843137,0 C12.6235294,0 13.9294118,0.843243243 14.654902,2.17837838 C14.0019608,2.6 13.4941176,3.09189189 13.0588235,3.72432432 Z" id="Path"></path>
                    <path d="M0,21.9243243 C0.0725490196,15.8810811 0.943137255,14.1945946 7.18235294,13.0702703 C7.18235294,13.0702703 8.05294118,14.1243243 10.0843137,14.1243243 C12.1156863,14.1243243 12.9862745,13.0702703 12.9862745,13.0702703 C13.0588235,13.0702703 13.1313725,13.0702703 13.2039216,13.0702703 C13.5666667,13.6324324 14.0019608,14.1243243 14.5098039,14.5459459 C11.8980392,15.0378378 9.86666667,15.8108108 8.70588235,17.427027 C7.54509804,18.972973 7.25490196,21.1513514 7.25490196,24.3135135 C7.25490196,24.5243243 7.25490196,24.5945946 7.25490196,24.6648649 C7.25490196,24.6648649 7.25490196,24.7351351 7.25490196,24.7351351 C7.25490196,24.8054054 7.25490196,25.0162162 7.25490196,25.227027 C7.25490196,25.3675676 7.25490196,25.4378378 7.32745098,25.5783784 C1.23333333,25.0162162 0.0725490196,22.7675676 0.0725490196,22.7675676 C0.0725490196,22.5567568 0.0725490196,22.4162162 0.0725490196,22.2756757 C0,22.3459459 0,22.2756757 0,21.9243243 Z" id="Path"></path>
                    <path d="M23.5058824,3.72432432 C24.5215686,5.2 24.6666667,7.16756757 24.6666667,8.71351351 C24.6666667,9.83783784 24.4490196,10.8918919 24.0137255,11.8756757 C24.7392157,12.2972973 25.6098039,12.5783784 26.4803922,12.5783784 C29.454902,12.5783784 31.8490196,9.76756757 31.8490196,6.32432432 C31.7764706,2.81081081 31.0509804,0 26.4803922,0 C23.9411765,0 22.6352941,0.843243243 21.9098039,2.17837838 C22.4901961,2.6 23.0705882,3.09189189 23.5058824,3.72432432 Z" id="Path"></path>
                    <path d="M36.5647059,21.9243243 C36.4921569,15.8810811 35.6215686,14.1945946 29.3823529,13.0702703 C29.3823529,13.0702703 28.5117647,14.1243243 26.4803922,14.1243243 C24.4490196,14.1243243 23.5784314,13.0702703 23.5784314,13.0702703 C23.5058824,13.0702703 23.4333333,13.0702703 23.3607843,13.0702703 C22.9980392,13.6324324 22.5627451,14.1243243 22.054902,14.5459459 C24.6666667,15.0378378 26.6980392,15.8108108 27.8588235,17.427027 C29.0196078,18.972973 29.3098039,21.1513514 29.3098039,24.3135135 C29.3098039,24.5243243 29.3098039,24.5945946 29.3098039,24.6648649 C29.3098039,24.6648649 29.3098039,24.7351351 29.3098039,24.7351351 C29.3098039,24.8054054 29.3098039,25.0162162 29.3098039,25.227027 C29.3098039,25.3675676 29.3098039,25.4378378 29.2372549,25.5783784 C35.3313725,25.0162162 36.4921569,22.7675676 36.4921569,22.7675676 C36.4921569,22.5567568 36.4921569,22.4162162 36.4921569,22.2756757 C36.5647059,22.3459459 36.5647059,22.2756757 36.5647059,21.9243243 Z" id="Path"></path>
                    <path d="M18.2827586,14.8594595 C21.2517241,14.8594595 23.6413793,12.0486486 23.6413793,8.60540541 C23.6413793,5.16216216 22.8448276,2.35135135 18.2827586,2.35135135 C13.7206897,2.35135135 12.9241379,5.16216216 12.9241379,8.60540541 C12.9241379,12.0486486 15.3137931,14.8594595 18.2827586,14.8594595 Z" id="Path"></path>
                    <path d="M28.3482759,24.2054054 C28.2758621,18.1621622 27.4068966,16.4756757 21.1793103,15.3513514 C21.1793103,15.3513514 20.3103448,16.4054054 18.2827586,16.4054054 C16.2551724,16.4054054 15.3862069,15.3513514 15.3862069,15.3513514 C9.23103448,16.4054054 8.36206897,18.0918919 8.28965517,23.9945946 C8.28965517,24.4864865 8.28965517,24.4864865 8.28965517,24.4162162 C8.28965517,24.4864865 8.28965517,24.6972973 8.28965517,25.0486486 C8.28965517,25.0486486 9.73793103,27.9297297 18.3551724,27.9297297 C26.9,27.9297297 28.4206897,25.0486486 28.4206897,25.0486486 C28.4206897,24.8378378 28.4206897,24.6972973 28.4206897,24.5567568 C28.3482759,24.6972973 28.3482759,24.627027 28.3482759,24.2054054 Z" id="Path"></path>
                </g>
            </g>
        </g>
    </g>
</svg>