<?xml version="1.0" encoding="UTF-8"?>
<svg width="34px" height="29px" viewBox="0 0 34 29" version="1.1" xmlns="http://www.w3.org/2000/svg" xmlns:xlink="http://www.w3.org/1999/xlink">
    <!-- Generator: Sketch 52.4 (67378) - http://www.bohemiancoding.com/sketch -->
    <title>icon-Top10Assets</title>
    <desc>Created with Sketch.</desc>
    <g id="Page-1" stroke="none" stroke-width="1" fill="none" fill-rule="evenodd">
        <g id="DSX-TechDog-Project---Dashboard" transform="translate(-834.000000, -583.000000)" fill="#00ABC5" fill-rule="nonzero">
            <path d="M867.278318,596.58613 L862.036303,584.31193 C861.889504,583.941054 861.621826,583.629913 861.23242,583.378042 C860.843554,583.12578 860.45816,583 860.076468,583 L841.752557,583 C841.370788,583 840.985394,583.12578 840.59645,583.378042 C840.207507,583.629913 839.939212,583.941054 839.792491,584.31193 L834.550553,596.58613 C834.18344,597.490423 834,598.40196 834,599.320973 L834,610.039003 C834,610.424443 834.139393,610.757858 834.418411,611.039637 C834.697583,611.321026 835.027976,611.462072 835.409745,611.462072 L866.419589,611.462072 C866.80128,611.462072 867.13152,611.321026 867.410614,611.039637 C867.689401,610.757936 867.828794,610.424521 867.828794,610.039003 L867.828794,599.320973 C867.828717,598.40196 867.645739,597.490423 867.278318,596.58613 Z M856.530544,598.654065 L854.43903,602.923505 L847.390921,602.923505 L845.298635,598.654065 L838.33893,598.654065 C838.353818,598.62447 838.371946,598.565279 838.394085,598.476338 C838.416225,598.387552 838.434584,598.328127 838.449241,598.298532 L843.118255,587.269829 L858.71131,587.269829 L863.379939,598.298532 C863.394904,598.343314 863.413186,598.402505 863.434786,598.476338 C863.457002,598.550092 863.475207,598.609283 863.49025,598.654065 L856.530544,598.654065 Z" id="icon-Top10Assets"></path>
        </g>
    </g>
</svg>