<?xml version="1.0" encoding="UTF-8"?>
<svg width="26px" height="30px" viewBox="0 0 26 30" version="1.1" xmlns="http://www.w3.org/2000/svg" xmlns:xlink="http://www.w3.org/1999/xlink">
    <!-- Generator: Sketch 52.4 (67378) - http://www.bohemiancoding.com/sketch -->
    <title>icon-TotHost</title>
    <desc>Created with Sketch.</desc>
    <g id="Page-1" stroke="none" stroke-width="1" fill="none" fill-rule="evenodd">
        <g id="DSX-TechDog-Project---Dashboard" transform="translate(-576.000000, -222.000000)" fill="#00ABC5">
            <g id="Total-number-of-Host" transform="translate(551.000000, 176.000000)">
                <g id="icon-TotHost" transform="translate(25.000000, 46.000000)">
                    <path d="M14.0883051,16.8152542 C13.6459322,16.8289831 13.2035593,16.8366102 12.7632203,16.8366102 C12.3213559,16.8366102 11.8774576,16.8294915 11.4340678,16.8152542 C7.70135593,16.7130508 4.72677966,16.1857627 2.58508475,15.4337288 C1.57830508,15.0940678 0.716440678,14.6944068 0.0508474576,14.2372881 L0.0508474576,17.8530508 L0.0508474576,18.1072881 L0.0508474576,18.3615254 L0.0508474576,19.0169492 C1.4979661,20.5276271 6.35288136,21.9208475 12.7627119,21.9208475 C19.1725424,21.9208475 24.0274576,20.5276271 25.4745763,19.0169492 L25.4745763,18.3615254 L25.4745763,18.1072881 L25.4745763,17.8530508 L25.4745763,14.2372881 C24.8044068,14.6974576 23.9349153,15.1001695 22.9194915,15.4408475 C20.7788136,16.189322 17.810339,16.7135593 14.0883051,16.8152542 Z" id="Path"></path>
                    <path d="M0.0508474576,7.57067797 L0.0508474576,11.1864407 L0.0508474576,11.440678 L0.0508474576,11.6949153 L0.0508474576,12.350339 C1.39220339,13.750678 5.66084746,15.050339 11.3827119,15.2323729 C11.4411864,15.2344068 11.5011864,15.2349153 11.5601695,15.2364407 C11.7259322,15.2410169 11.8911864,15.2455932 12.0594915,15.2481356 C12.2918644,15.2522034 12.5262712,15.2542373 12.7627119,15.2542373 C12.9991525,15.2542373 13.2335593,15.2522034 13.4659322,15.2486441 C13.6337288,15.2461017 13.7994915,15.2415254 13.9652542,15.2369492 C14.0242373,15.2354237 14.0842373,15.2344068 14.1427119,15.2328814 C19.8645763,15.050339 24.1332203,13.750678 25.4745763,12.3508475 L25.4745763,11.6949153 L25.4745763,11.440678 L25.4745763,11.1864407 L25.4745763,7.57067797 C22.9998305,9.27050847 17.7681356,10.1694915 12.7627119,10.1694915 C7.75728814,10.1694915 2.52610169,9.27050847 0.0508474576,7.57067797 Z" id="Path"></path>
                    <path d="M25.4059322,4.34338983 C24.8354237,2.15644068 20.4483051,0 12.7627119,0 C5.09644068,0 0.713898305,2.14576271 0.12559322,4.32711864 C0.0823728814,4.40186441 0.0508474576,4.48372881 0.0508474576,4.57627119 L0.0508474576,4.83050847 L0.0508474576,5.74881356 C1.49338983,7.25440678 6.31372881,8.6440678 12.7627119,8.6440678 C19.2116949,8.6440678 24.0325424,7.25440678 25.4745763,5.74881356 L25.4745763,4.83050847 L25.4745763,4.57627119 C25.4745763,4.49084746 25.4461017,4.4140678 25.4059322,4.34338983 Z" id="Path"></path>
                    <path d="M0.0508474576,20.8474576 L0.0508474576,25.0174576 C0.0508474576,25.0998305 0.0727118644,25.1776271 0.110338983,25.2467797 C0.710847458,27.7357627 6.08338983,29.5937288 12.7627119,29.5937288 C19.4267797,29.5937288 24.790678,27.7433898 25.4110169,25.2635593 C25.4516949,25.190339 25.4745763,25.1064407 25.4745763,25.0174576 L25.4745763,20.8484746 C23.3720339,22.3286441 19.0398305,23.4920339 12.7627119,23.4920339 C6.48508475,23.4920339 2.15288136,22.3276271 0.0508474576,20.8474576 Z" id="Path"></path>
                </g>
            </g>
        </g>
    </g>
</svg>