<?xml version="1.0" encoding="UTF-8"?>
<svg width="14px" height="14px" viewBox="0 0 14 14" version="1.1" xmlns="http://www.w3.org/2000/svg" xmlns:xlink="http://www.w3.org/1999/xlink">
    <!-- Generator: Sketch 52.4 (67378) - http://www.bohemiancoding.com/sketch -->
    <title>icon-ip-Active</title>
    <desc>Created with Sketch.</desc>
    <g id="Page-1" stroke="none" stroke-width="1" fill="none" fill-rule="evenodd">
        <g id="DSX-TechDog-Project---Dashboard" transform="translate(-107.000000, -403.000000)" fill="#FDFDFF" fill-rule="nonzero">
            <g id="icon-ip-Active" transform="translate(107.000000, 403.000000)">
                <path d="M13.5178909,2.22981818 L11.7482909,0.457672727 C11.1386545,-0.152727273 10.1466909,-0.152727273 9.5368,0.457672727 L6.44025455,3.5588 C5.83036364,4.16945455 5.83036364,5.16396364 6.44025455,5.77461818 C6.56243636,5.8968 6.76072727,5.8968 6.88265455,5.77461818 C7.00458182,5.65218182 7.00458182,5.45389091 6.88265455,5.33145455 C6.51661818,4.96516364 6.51661818,4.36850909 6.88265455,4.00170909 L9.97894545,0.900836364 C10.3449818,0.535054545 10.9403636,0.535054545 11.3061455,0.900836364 L13.0752364,2.67323636 C13.4412727,3.03952727 13.4412727,3.63618182 13.0752364,4.00298182 L9.97894545,7.10385455 C9.62436364,7.45894545 9.00658182,7.45894545 8.652,7.10385455 C8.52981818,6.98167273 8.33178182,6.98167273 8.20985455,7.10385455 C8.08792727,7.22603636 8.08792727,7.42458182 8.20985455,7.54676364 C8.50487273,7.8428 8.89763636,8.00570909 9.31585455,8.00570909 C9.73381818,8.00570909 10.1265818,7.8428 10.4216,7.54676364 L13.5181455,4.44538182 C14.1275273,3.83472727 14.1275273,2.84072727 13.5178909,2.22981818 Z M7.1036,8.21163636 C6.98167273,8.33381818 6.98167273,8.53236364 7.1036,8.65454545 C7.46963636,9.02083636 7.46963636,9.61749091 7.1036,9.98429091 L4.00730909,13.0851636 C3.64127273,13.4512 3.04589091,13.4512 2.68010909,13.0851636 L0.911018182,11.3130182 C0.544981818,10.9469818 0.544981818,10.3503273 0.911018182,9.98327273 L4.00730909,6.88189091 C4.36189091,6.52654545 4.97967273,6.52654545 5.33425455,6.88189091 C5.45643636,7.00407273 5.65447273,7.00407273 5.7764,6.88189091 C5.89832727,6.75970909 5.89832727,6.56090909 5.7764,6.43872727 C5.18636364,5.8464 4.1552,5.8464 3.56490909,6.43872727 L0.468872727,9.54036364 C-0.141018182,10.1507636 -0.141018182,11.1457818 0.468872727,11.7561818 L2.23796364,13.5280727 C2.54265455,13.8335273 2.94330909,13.9865091 3.34396364,13.9865091 C3.74461818,13.9865091 4.14476364,13.8335273 4.44996364,13.5280727 L7.54650909,10.4266909 C8.1564,9.81629091 8.1564,8.82178182 7.54650909,8.21087273 C7.42381818,8.08894545 7.22629091,8.08894545 7.1036,8.21163636 Z M3.12327273,10.8703636 C3.18385455,10.9312 3.26429091,10.9617455 3.34396364,10.9617455 C3.42389091,10.9617455 3.50432727,10.9312 3.56516364,10.8703636 L10.6428,3.78025455 C10.7647273,3.65807273 10.7647273,3.45952727 10.6428,3.33734545 C10.5206182,3.21516364 10.3223273,3.21516364 10.2006545,3.33734545 L3.12327273,10.4274545 C3.00058182,10.5493818 3.00058182,10.7481818 3.12327273,10.8703636 Z" id="Shape"></path>
            </g>
        </g>
    </g>
</svg>