<?xml version="1.0" encoding="UTF-8"?>
<svg width="34px" height="26px" viewBox="0 0 34 26" version="1.1" xmlns="http://www.w3.org/2000/svg" xmlns:xlink="http://www.w3.org/1999/xlink">
    <!-- Generator: Sketch 52.4 (67378) - http://www.bohemiancoding.com/sketch -->
    <title>icon-Top10Logins</title>
    <desc>Created with Sketch.</desc>
    <g id="Page-1" stroke="none" stroke-width="1" fill="none" fill-rule="evenodd">
        <g id="DSX-TechDog-Project---Dashboard" transform="translate(-1001.000000, -584.000000)" fill="#00ABC5" fill-rule="nonzero">
            <g id="icon-Top10Logins" transform="translate(1001.000000, 584.000000)">
                <path d="M29.7449606,0 L4.0059298,0 C1.79707738,0 0,1.74241384 0,3.88406954 L0,21.9972724 C0,24.1389281 1.79707738,25.881342 4.0059298,25.881342 L29.7449606,25.881342 C31.953813,25.881342 33.7508021,24.1389281 33.7508021,21.9972724 L33.7508021,3.88406954 C33.7508021,1.74241384 31.953813,0 29.7449606,0 Z M29.7449606,22.4523386 L4.0059298,22.4523386 C3.68124404,22.4523386 3.39648156,22.2397425 3.39648156,21.9972724 L3.39648156,6.27925318 L15.0375613,16.2018893 C15.2762177,16.4053894 15.5797052,16.5173947 15.892202,16.5173947 L17.8582467,16.5174839 C18.1705669,16.5174839 18.4742311,16.4053894 18.7129758,16.2018893 L30.3545855,6.27889648 L30.3545855,21.9974508 C30.3544088,22.2397425 30.069558,22.4523386 29.7449606,22.4523386 Z" id="Shape"></path>
            </g>
        </g>
    </g>
</svg>