<?xml version="1.0" encoding="UTF-8"?>
<svg width="39px" height="32px" viewBox="0 0 39 32" version="1.1" xmlns="http://www.w3.org/2000/svg" xmlns:xlink="http://www.w3.org/1999/xlink">
    <!-- Generator: Sketch 52.4 (67378) - http://www.bohemiancoding.com/sketch -->
    <title>icon-onlineuser</title>
    <desc>Created with Sketch.</desc>
    <g id="Page-1" stroke="none" stroke-width="1" fill="none" fill-rule="evenodd">
        <g id="DSX-TechDog-Project---Dashboard" transform="translate(-349.000000, -330.000000)" fill="#00ABC5">
            <g id="Online-User" transform="translate(329.000000, 283.000000)">
                <g id="icon-onlineuser" transform="translate(20.000000, 47.000000)">
                    <path d="M36.2457926,0.0563600783 L36.2457926,0 L36.0579256,0 L2.2481409,0 L2.06027397,0 L2.06027397,0.0563600783 C0.958121331,0.131506849 0.131506849,1.01448141 0,2.07906067 L0,2.26692759 L0,24.541683 C0,24.9737769 0.112720157,25.3369863 0.300587084,25.6626223 C0.732681018,26.4203523 1.37142857,26.8086106 2.2481409,26.8086106 L14.5847358,26.8086106 L14.5847358,29.9209393 L12.2426614,29.9209393 C11.660274,29.9209393 11.2093933,30.37182 11.2093933,30.9542074 C11.2093933,31.5365949 11.660274,31.9874755 12.2426614,31.9874755 L26.0634051,31.9874755 C26.6457926,31.9874755 27.1154599,31.5365949 27.1154599,30.9542074 C27.1154599,30.37182 26.6457926,29.9209393 26.0634051,29.9209393 L23.7213307,29.9209393 L23.7213307,26.8086106 L36.0579256,26.8086106 C36.9409002,26.8086106 37.5796477,26.4266145 38.0054795,25.6626223 C38.1996086,25.3181996 38.3248532,24.948728 38.3248532,24.541683 L38.3248532,2.26692759 L38.3248532,2.07906067 C38.1933464,1.01448141 37.3103718,0.131506849 36.2457926,0.0563600783 Z M36.2457926,2.26692759 L36.2457926,24.541683 C36.2457926,24.6731898 36.1894325,24.7295499 36.0579256,24.7295499 L2.2481409,24.7295499 C2.11663405,24.7295499 2.06027397,24.6731898 2.06027397,24.541683 L2.06027397,2.26692759 L2.06027397,2.07906067 L36.2395303,2.07906067 L36.2457926,2.26692759 Z" id="Shape" fill-rule="nonzero"></path>
                    <path d="M28.3804305,17.7158513 L26.983953,16.3193738 L27.9796477,15.7432485 C28.0547945,15.6994129 28.1048924,15.6117417 28.0986301,15.5240705 C28.0923679,15.4363992 28.0360078,15.3549902 27.9545988,15.3236791 L23.5146771,13.5514677 C23.4270059,13.5138943 23.3268102,13.5389432 23.2641879,13.6015656 C23.1953033,13.6704501 23.1765166,13.7643836 23.21409,13.8520548 L24.9863014,18.2919765 C25.0176125,18.3733855 25.0990215,18.4297456 25.1866928,18.4360078 C25.274364,18.4422701 25.3620352,18.3984344 25.4058708,18.3170254 L25.9819961,17.3213307 L27.3784736,18.7178082 C27.4223092,18.7616438 27.4849315,18.7866928 27.5412916,18.7866928 C27.6039139,18.7866928 27.660274,18.7616438 27.7041096,18.7178082 L28.3866928,18.035225 C28.474364,17.9600783 28.474364,17.8097847 28.3804305,17.7158513 Z" id="Path"></path>
                </g>
            </g>
        </g>
    </g>
</svg>