<?xml version="1.0" encoding="UTF-8"?>
<svg width="15px" height="14px" viewBox="0 0 15 14" version="1.1" xmlns="http://www.w3.org/2000/svg" xmlns:xlink="http://www.w3.org/1999/xlink">
    <!-- Generator: Sketch 52.4 (67378) - http://www.bohemiancoding.com/sketch -->
    <title>icon-audits-Active</title>
    <desc>Created with Sketch.</desc>
    <g id="Page-1" stroke="none" stroke-width="1" fill="none" fill-rule="evenodd">
        <g id="DSX-TechDog-Project---Dashboard" transform="translate(-106.000000, -512.000000)" fill="#FDFDFF" fill-rule="nonzero">
            <g id="icon-audits-Active" transform="translate(106.000000, 512.000000)">
                <path d="M13.9265,6.39853846 C13.7140769,6.11611538 13.3522308,5.9605 12.908,5.9605 L10.1537692,5.9605 C9.69419231,5.9605 9.32453846,5.60780769 9.32453846,5.31623077 C9.32453846,4.89730769 9.52376923,4.22530769 9.73403846,3.93373077 C10.0121538,3.54738462 10.3465385,2.69634615 10.4784615,2.03646154 C10.6316538,1.27023077 10.3381923,0.495923077 9.81130769,0.273269231 C9.28765385,0.0516923077 8.51873077,0.397653846 8.06642308,1.04353846 L5.34719231,4.942 C5.12696154,5.25673077 4.93580769,5.70796154 4.80684615,6.1705 C4.66684615,6.09107692 4.50773077,6.04207692 4.33596154,6.04207692 L0.965461538,6.04207692 C0.432923077,6.04207692 0,6.47580769 0,7.00915385 L0,10.9655 C0,11.4983077 0.432923077,11.9320385 0.965461538,11.9320385 L4.33596154,11.9320385 C4.52926923,11.9320385 4.70857692,11.8733462 4.85934615,11.7750769 C5.03380769,12.2255 5.29684615,12.6508846 5.6035,12.9281923 L5.78334615,13.0738462 C6.30215385,13.5447308 7.28296154,13.9135769 8.01553846,13.9135769 L10.7336923,13.9135769 C11.5276538,13.9135769 12.3181154,13.3293462 12.5321538,12.5857308 L14.0643462,7.38230769 C14.1715,7.00915385 14.1222308,6.65915385 13.9265,6.39853846 Z M4.63857692,10.9655 C4.63857692,11.1329615 4.50288462,11.2694615 4.33569231,11.2694615 L0.965461538,11.2694615 C0.798,11.2694615 0.661769231,11.1329615 0.661769231,10.9655 L0.661769231,7.00915385 C0.661769231,6.84142308 0.798,6.70519231 0.965461538,6.70519231 L4.33596154,6.70519231 C4.50315385,6.70519231 4.63884615,6.84142308 4.63884615,7.00915385 L4.63857692,10.9655 Z M13.4289615,7.19680769 L11.8967692,12.3999615 C11.7643077,12.8608846 11.2315,13.2504615 10.7336923,13.2504615 L8.01526923,13.2504615 C7.44530769,13.2504615 6.62603846,12.9443462 6.21411538,12.5706538 L6.03453846,12.425 C5.63634615,12.0645 5.30034615,11.2877692 5.30034615,10.7293846 L5.30034615,7.245 C5.30034615,6.65861538 5.56984615,5.77823077 5.88888462,5.32161538 L8.60811538,1.42369231 C8.86469231,1.05807692 9.22653846,0.866653846 9.45215385,0.866653846 C9.492,0.866653846 9.52619231,0.872307692 9.55419231,0.884153846 C9.73484615,0.960076923 9.93111538,1.39596154 9.82934615,1.90615385 C9.71680769,2.46830769 9.42146154,3.23426923 9.19719231,3.5455 C8.90238462,3.95446154 8.66303846,4.74869231 8.66303846,5.31596154 C8.66303846,6.01219231 9.35953846,6.62280769 10.1537692,6.62280769 L12.9077308,6.62280769 C13.1365769,6.62280769 13.3148077,6.68607692 13.3977308,6.79646154 C13.4852308,6.91357692 13.4626154,7.07942308 13.4289615,7.19680769 Z" id="Shape"></path>
            </g>
        </g>
    </g>
</svg>