<?xml version="1.0" encoding="UTF-8"?>
<svg width="39px" height="30px" viewBox="0 0 39 30" version="1.1" xmlns="http://www.w3.org/2000/svg" xmlns:xlink="http://www.w3.org/1999/xlink">
    <!-- Generator: Sketch 52.4 (67378) - http://www.bohemiancoding.com/sketch -->
    <title>icon-OnlineConvo</title>
    <desc>Created with Sketch.</desc>
    <g id="Page-1" stroke="none" stroke-width="1" fill="none" fill-rule="evenodd">
        <g id="DSX-TechDog-Project---Dashboard" transform="translate(-573.000000, -328.000000)" fill="#00ABC5">
            <g id="Online-Convo" transform="translate(551.000000, 283.000000)">
                <g id="icon-OnlineConvo" transform="translate(22.000000, 45.000000)">
                    <path d="M22.4756576,20.3673945 C24.778139,19.3968238 26.5952605,18.0757072 27.9268734,16.4035236 C29.2587097,14.7317122 29.924665,12.9110918 29.924665,10.9415881 C29.924665,8.97200993 29.2587097,7.15146402 27.9268734,5.47935484 C26.5952605,3.80746898 24.778139,2.48620347 22.4756576,1.51540943 C20.1731762,0.544764268 17.6688834,0.0596277916 14.9624069,0.0596277916 C12.2561538,0.0596277916 9.75186104,0.545062035 7.44923077,1.5157072 C5.14689826,2.48635236 3.32970223,3.80761787 1.99801489,5.47957816 C0.666029777,7.15146402 0,8.97193548 0,10.9415881 C0,12.6275434 0.503523573,14.2151613 1.50937965,15.7026551 C2.51523573,17.1903722 3.89679901,18.4445658 5.65362283,19.4645658 C5.51203474,19.8049132 5.36679901,20.1162283 5.21799007,20.4 C5.0691067,20.6833251 4.89215881,20.9558561 4.68655087,21.2181886 C4.48109181,21.4805955 4.32186104,21.6859057 4.20841191,21.8341935 C4.09503722,21.982928 3.91086849,22.1921836 3.65575682,22.4611414 C3.40057072,22.730397 3.23754342,22.9074938 3.16689826,22.9922829 C3.16689826,22.9780645 3.1383871,23.0101489 3.08181141,23.0880893 C3.02501241,23.1660298 2.99315136,23.2012407 2.98600496,23.1946154 C2.97900744,23.1869479 2.95057072,23.2223821 2.901067,23.3003226 C2.85148883,23.3783375 2.82662531,23.4172705 2.82662531,23.4172705 L2.7733995,23.523201 C2.75225806,23.5654839 2.73796526,23.6078412 2.73096774,23.6506452 C2.72382134,23.6928536 2.72024814,23.7392308 2.72024814,23.78866 C2.72024814,23.8380893 2.72724566,23.8839454 2.74153846,23.9266749 C2.77004963,24.1106203 2.85148883,24.2591315 2.98600496,24.3730273 C3.12066998,24.4861787 3.26568238,24.5426799 3.4217866,24.5426799 L3.48558313,24.5426799 C4.19389578,24.4435236 4.80327543,24.3302233 5.31327543,24.2025558 C7.49531017,23.6357568 9.46496278,22.7288337 11.221861,21.4820844 C12.4968983,21.7088337 13.7439454,21.822134 14.9624069,21.822134 C17.66866,21.8230273 20.1732506,21.3380397 22.4756576,20.3673945 Z M10.5844169,18.5930769 L9.64913151,19.2515881 C9.25235732,19.5206203 8.81337469,19.7973201 8.33151365,20.0808685 L9.07555831,18.2953102 L7.01397022,17.1051365 C5.65347395,16.3118859 4.5980397,15.3766749 3.84707196,14.2998015 C3.09602978,13.2230025 2.72069479,12.1036228 2.72069479,10.9416625 C2.72069479,9.49622829 3.27707196,8.14310174 4.38923077,6.88205955 C5.50124069,5.62101737 6.99967742,4.62215881 8.88416873,3.88511166 C10.7685112,3.14851117 12.7947395,2.77987593 14.9625558,2.77987593 C17.1303722,2.77987593 19.1567494,3.14851117 21.0410174,3.88511166 C22.9253598,4.62208437 24.4237965,5.62101737 25.536402,6.88205955 C26.6485608,8.1430273 27.2044913,9.49615385 27.2044913,10.9416625 C27.2044913,12.3868734 26.6485608,13.7399256 25.536402,15.0009677 C24.423871,16.2623821 22.9254342,17.2610174 21.0410174,17.9976923 C19.1567494,18.7344417 17.1305955,19.1028536 14.9625558,19.1028536 C13.9001241,19.1028536 12.8161787,19.0034739 11.7108685,18.8053102 L10.5844169,18.5930769 Z" id="Shape" fill-rule="nonzero"></path>
                    <path d="M36.5766998,21.1530521 C37.5830025,19.6719603 38.0857816,18.0819603 38.0857816,16.3814888 C38.0857816,14.6387345 37.5543424,13.0090571 36.4920596,11.493201 C35.4292556,9.97741935 33.9838213,8.71615385 32.1562035,7.71014888 C32.4818114,8.77272953 32.6447643,9.84952854 32.6447643,10.9407692 C32.6447643,12.8392556 32.1707196,14.6387345 31.2207692,16.339206 C30.2714888,18.0391563 28.9112159,19.5409429 27.1401737,20.8447146 C25.4965012,22.0348883 23.6261538,22.9485112 21.5289826,23.5863275 C19.4324069,24.2236973 17.2431514,24.5427543 14.9618859,24.5427543 C14.5369727,24.5427543 13.9134491,24.5146898 13.0917618,24.4581141 C15.939603,26.3280149 19.283598,27.2634491 23.1232258,27.2634491 C24.3419107,27.2634491 25.58866,27.1498511 26.863995,26.9231762 C28.6208189,28.1704467 30.5905459,29.0768486 32.7724318,29.6439454 C33.2825062,29.7718362 33.8918114,29.8849132 34.600273,29.983995 C34.7702233,29.9985112 34.926402,29.9485608 35.0679901,29.8354839 C35.2096526,29.7218859 35.3018859,29.5664516 35.3441687,29.3682878 C35.3375434,29.283201 35.3441687,29.2365261 35.3655335,29.2297519 C35.3864516,29.2230521 35.3828784,29.1767494 35.3548139,29.0918859 C35.3268238,29.0067246 35.312531,28.9642184 35.312531,28.9642184 L35.2595285,28.8582134 C35.2447891,28.8302233 35.2208189,28.7909926 35.1851613,28.7415633 C35.149727,28.6924318 35.1215136,28.6566998 35.1000744,28.635335 C35.0792308,28.6141935 35.0475931,28.578536 35.0047891,28.52933 C34.9625062,28.4801985 34.933995,28.4480397 34.9197022,28.4338213 C34.8489082,28.3487345 34.6860298,28.1717122 34.431067,27.9023821 C34.1758065,27.6334243 33.9919355,27.4244665 33.8785608,27.275732 C33.7651861,27.1269231 33.605732,26.9216129 33.4003474,26.659206 C33.1950372,26.3973201 33.0177171,26.1244913 32.8689082,25.8410174 C32.7201737,25.5576923 32.574938,25.2458561 32.4332754,24.9060298 C34.1896526,23.8849876 35.5714392,22.634665 36.5766998,21.1530521 Z" id="Path"></path>
                </g>
            </g>
        </g>
    </g>
</svg>