<?xml version="1.0" encoding="UTF-8"?>
<svg width="16px" height="16px" viewBox="0 0 16 16" version="1.1" xmlns="http://www.w3.org/2000/svg" xmlns:xlink="http://www.w3.org/1999/xlink">
    <!-- Generator: Sketch 52.4 (67378) - http://www.bohemiancoding.com/sketch -->
    <title>icon-assets</title>
    <desc>Created with Sketch.</desc>
    <g id="Page-1" stroke="none" stroke-width="1" fill="none" fill-rule="evenodd">
        <g id="DSX-TechDog-Project---Dashboard" transform="translate(-106.000000, -240.000000)" fill="#DBDBDB" fill-rule="nonzero">
            <g id="icon-assets" transform="translate(106.000000, 240.000000)">
                <path d="M15.4840656,0 C15.3054426,0 15.1617049,0.14452459 15.1617049,0.322622951 L15.1617049,1.92183607 L12.7454426,3.1837377 C12.4099672,2.74937705 11.8859016,2.46793443 11.2962623,2.46793443 C10.2845902,2.46793443 9.46177049,3.29206557 9.46177049,4.30478689 C9.46177049,4.93665574 9.78203279,5.49508197 10.2680656,5.82583607 L9.46596721,7.63436066 C9.32511475,7.5997377 9.1787541,7.57927869 9.02767213,7.57927869 C8.0162623,7.57927869 7.19344262,8.40367213 7.19344262,9.41691803 C7.19344262,9.568 7.21390164,9.71462295 7.24852459,9.85547541 L5.44288525,10.6591475 C5.11265574,10.1720656 4.55527869,9.85127869 3.92419672,9.85127869 C2.91331148,9.85127869 2.0907541,10.6754098 2.0907541,11.6883934 C2.0907541,12.3045246 2.39580328,12.8487869 2.86137705,13.1821639 L1.9197377,15.1735082 L0.33547541,15.1735082 C0.157377049,15.1735082 0.0131147541,15.3175082 0.0131147541,15.4961311 C0.0131147541,15.6747541 0.157377049,15.8187541 0.33547541,15.8187541 L14.5977705,15.8187541 C15.2642623,15.8187541 15.8059016,15.2760656 15.8059016,14.6082623 L15.8059016,0.322622951 C15.8061639,0.14452459 15.6621639,0 15.4840656,0 Z M11.296,3.11370492 C11.7513443,3.11370492 12.1429508,3.37390164 12.3428197,3.75108197 C12.3441311,3.75318033 12.3436066,3.75554098 12.3446557,3.75737705 C12.3467541,3.76104918 12.3499016,3.76340984 12.3512131,3.76681967 C12.4340984,3.92918033 12.4855082,4.11016393 12.4855082,4.30478689 C12.4855082,4.96183607 11.9522623,5.49639344 11.296,5.49639344 C10.6402623,5.49639344 10.1064918,4.96183607 10.1064918,4.30478689 C10.1064918,3.6477377 10.6402623,3.11370492 11.296,3.11370492 Z M9.02767213,8.22478689 C9.68367213,8.22478689 10.2174426,8.75960656 10.2174426,9.41639344 C10.2174426,10.0737049 9.68367213,10.6074754 9.02767213,10.6074754 C8.37167213,10.6074754 7.83790164,10.0737049 7.83790164,9.41639344 C7.83790164,8.75960656 8.37167213,8.22478689 9.02767213,8.22478689 Z M3.92419672,10.4970492 C4.58019672,10.4970492 5.11396721,11.0318689 5.11396721,11.6886557 C5.11396721,12.3459672 4.58019672,12.8797377 3.92419672,12.8797377 C3.74321311,12.8797377 3.5732459,12.8361967 3.41954098,12.7632787 C3.4184918,12.7630164 3.41796721,12.7619672 3.41691803,12.7614426 C3.41639344,12.760918 3.41560656,12.760918 3.41508197,12.760918 C3.01455738,12.5694426 2.73495082,12.1628852 2.73495082,11.6886557 C2.73521311,11.0318689 3.26845902,10.4970492 3.92419672,10.4970492 Z M14.5977705,15.1737705 L2.63291803,15.1737705 L3.44367213,13.4596721 C3.59711475,13.5011148 3.75763934,13.5257705 3.92419672,13.5257705 C4.93586885,13.5257705 5.75868852,12.701377 5.75868852,11.6886557 C5.75868852,11.5370492 5.73822951,11.3906885 5.70360656,11.2495738 L7.5092459,10.4464262 C7.8397377,10.9329836 8.39685246,11.2537705 9.02767213,11.2537705 C10.039082,11.2537705 10.8619016,10.429377 10.8619016,9.41718033 C10.8619016,8.78504918 10.5416393,8.22688525 10.0556066,7.89586885 L10.8579672,6.08734426 C10.9985574,6.12196721 11.144918,6.14242623 11.296,6.14242623 C12.3074098,6.14242623 13.1302295,5.31829508 13.1302295,4.30504918 C13.1302295,4.11383607 13.1008525,3.92891803 13.0465574,3.75527869 L15.1617049,2.65022951 L15.1617049,14.6087869 C15.1617049,14.9201311 14.9085902,15.1737705 14.5977705,15.1737705 Z" id="Shape"></path>
            </g>
        </g>
    </g>
</svg>