<?xml version="1.0" encoding="UTF-8"?>
<svg width="21px" height="14px" viewBox="0 0 21 14" version="1.1" xmlns="http://www.w3.org/2000/svg" xmlns:xlink="http://www.w3.org/1999/xlink">
    <!-- Generator: Sketch 52.4 (67378) - http://www.bohemiancoding.com/sketch -->
    <title>icon-dashboard</title>
    <desc>Created with Sketch.</desc>
    <g id="Page-1" stroke="none" stroke-width="1" fill="none" fill-rule="evenodd">
        <g id="DSX-TechDog-Project---Dashboard" transform="translate(-105.000000, -134.000000)" fill="#DBDBDB">
            <g id="icon-dashboard" transform="translate(105.000000, 134.000000)">
                <path d="M14.8175781,5.55488578 L9.61457665,10.129721 C9.60761849,10.1358046 9.60070198,10.1418883 9.5946188,10.1483886 C9.42620613,10.3159379 9.33333333,10.5394482 9.33333333,10.7777508 C9.33333333,11.2677733 9.7317822,11.6666667 10.2221872,11.6666667 C10.4583066,11.6666667 10.6813847,11.5746624 10.8706302,11.3854037 L15.4451882,6.18203961 C15.5996845,6.00623986 15.5910181,5.74018597 15.4252303,5.57438668 C15.2594009,5.40904575 14.9946572,5.40033701 14.8175781,5.55488578 Z" id="Path"></path>
                <path d="M10.5,0 C4.70994727,0 0,4.71038924 0,10.4999795 C0,11.5860301 0.168328125,12.6610065 0.499037109,13.6957877 C0.55715625,13.8769534 0.725484375,14 0.916042969,14 L20.083998,14 C20.2745566,14 20.4428848,13.8769534 20.5010039,13.6957877 C20.8316719,12.6610065 21,11.5860711 21,10.4999795 C21,4.71038924 16.2900527,0 10.5,0 Z M18.8125137,10.9374923 L20.0946621,10.9374923 C20.0608652,11.6774127 19.9618945,12.4118781 19.7592773,13.1249744 L1.24072266,13.1249744 C1.03810547,12.4118371 0.939134766,11.6774127 0.905337891,10.9374923 L2.18748633,10.9374923 C2.42931445,10.9374923 2.625,10.7418071 2.625,10.4999795 C2.625,10.2581518 2.42931445,10.0624667 2.18748633,10.0624667 L0.897134766,10.0624667 C0.961980469,8.63024486 1.33518164,7.27894672 1.9614082,6.07542759 L3.08211914,6.7226939 C3.15135352,6.76243796 3.22653516,6.78122308 3.30085547,6.78122308 C3.45125977,6.78122308 3.59908008,6.70304745 3.67938867,6.56248718 C3.80071289,6.35314384 3.72893555,6.08568147 3.5195918,5.96476765 L2.40138281,5.31893688 C3.15291211,4.14839424 4.14873047,3.15265986 5.31931641,2.40117304 L5.96514844,3.52007711 C6.04545703,3.66022723 6.19331836,3.73881301 6.34368164,3.73881301 C6.41804297,3.73881301 6.49322461,3.72002789 6.56241797,3.68028383 C6.77176172,3.55937 6.84353906,3.29190763 6.72221484,3.08256429 L6.07511133,1.96152742 C7.27871484,1.33522005 8.63009766,0.96197859 10.0624453,0.897133013 L10.0624453,2.18748206 C10.0624453,2.42930971 10.2581309,2.62499487 10.499959,2.62499487 C10.7417871,2.62499487 10.9374727,2.42930971 10.9374727,2.18748206 L10.9374727,0.897133013 C12.3698203,0.96197859 13.7212031,1.33522005 14.9248066,1.96152742 L14.2777031,3.08256429 C14.1563789,3.29190763 14.2281563,3.55937 14.4375,3.68028383 C14.5067344,3.72002789 14.581916,3.73881301 14.6562363,3.73881301 C14.8066406,3.73881301 14.9544609,3.66018621 15.0347695,3.52007711 L15.6806016,2.40117304 C16.8511875,3.15265986 17.8470059,4.14839424 18.5985352,5.31893688 L17.4803262,5.96476765 C17.2709824,6.08568147 17.1992051,6.35314384 17.3205293,6.56248718 C17.4008379,6.70304745 17.5486992,6.78122308 17.6990625,6.78122308 C17.7733828,6.78122308 17.8486055,6.76243796 17.9177988,6.7226939 L19.0385098,6.07542759 C19.6647363,7.27898774 20.0379375,8.63024486 20.1027832,10.0624667 L18.8124316,10.0624667 C18.5706035,10.0624667 18.374918,10.2581518 18.374918,10.4999795 C18.375,10.7418071 18.5706855,10.9374923 18.8125137,10.9374923 Z" id="Shape" fill-rule="nonzero"></path>
            </g>
        </g>
    </g>
</svg>