<?xml version="1.0" encoding="UTF-8"?>
<svg width="12px" height="13px" viewBox="0 0 12 13" version="1.1" xmlns="http://www.w3.org/2000/svg" xmlns:xlink="http://www.w3.org/1999/xlink">
    <!-- Generator: Sketch 52.4 (67378) - http://www.bohemiancoding.com/sketch -->
    <title>icon-update</title>
    <desc>Created with Sketch.</desc>
    <g id="Page-1" stroke="none" stroke-width="1" fill="none" fill-rule="evenodd">
        <g id="DSX-TechDog-Project---Users-(User-Lists)" transform="translate(-1169.000000, -377.000000)">
            <g id="Group-7" transform="translate(1144.000000, 320.000000)">
                <g id="Group-4" transform="translate(1.000000, 43.000000)">
                    <g id="icon-update" transform="translate(24.000000, 14.000000)">
                        <path d="M11.4033094,2.02840644 L9.1331493,0.126971462 C8.90263271,-0.0657008434 8.55858383,-0.0356092975 8.3647351,0.193533759 C8.17088638,0.422676815 8.20116166,0.764612338 8.43170382,0.957284643 L9.55720777,1.90801484 L4.16557437,1.90801484 C2.4565809,1.90989556 1.07153803,3.28653296 1.06962025,4.98518039 L1.06962025,5.95809802 C1.06962025,6.25725983 1.31384254,6.5 1.61483098,6.5 C1.91581941,6.5 2.1600417,6.25725983 2.1600417,5.95809802 L2.1600417,4.97567513 C2.16195948,3.87537673 3.0585322,2.98421966 4.16557437,2.98231353 L9.56040406,2.98231353 L8.43490011,3.93304372 C8.20438352,4.12571603 8.17408267,4.46767697 8.3679314,4.69679461 C8.56178012,4.92591225 8.905829,4.95602921 9.13634559,4.7633569 L11.4065057,2.86189651 C11.6370223,2.66952919 11.6673231,2.32759367 11.4737812,2.09847603 C11.4533761,2.07438246 11.4307464,2.05189004 11.4065057,2.03160875 L11.4033094,2.02840644 Z" id="Path" fill="#00ABC5"></path>
                        <path d="M9.98565878,6.5 C9.68421364,6.5 9.43962078,6.74238666 9.43962078,7.0411128 L9.43962078,8.02210498 C9.4377001,9.12080099 8.53976697,10.0106603 7.43104504,10.0125636 L2.02802956,10.0125636 L3.15524128,9.06321798 C3.41932269,8.91861331 3.51512647,8.58950953 3.36918,8.32778473 C3.22325915,8.0660853 2.89115987,7.97114566 2.62705286,8.11577571 C2.56638481,8.1489957 2.51242636,8.19330594 2.46866035,8.24677769 L0.195055663,10.145469 C-0.0358106967,10.3375561 -0.0661575227,10.6789937 0.127678026,10.9077777 C0.148114117,10.9318361 0.170778202,10.9542958 0.195055663,10.9745476 L2.46866035,12.8732134 C2.69952671,13.0656052 3.04409763,13.0355574 3.23824049,12.8067481 C3.43238335,12.5779387 3.40206213,12.2365012 3.17117017,12.0441095 L2.04395844,11.0947638 L7.43099382,11.0947638 C9.14258041,11.0928605 10.5297505,9.71822789 10.5316456,8.0220796 L10.5316456,7.04113818 C10.5317224,6.74208212 10.2871039,6.5 9.98565878,6.5 Z" id="Path" fill="#293C7D"></path>
                    </g>
                </g>
            </g>
        </g>
    </g>
</svg>