<?xml version="1.0" encoding="UTF-8"?>
<svg width="17px" height="17px" viewBox="0 0 17 17" version="1.1" xmlns="http://www.w3.org/2000/svg" xmlns:xlink="http://www.w3.org/1999/xlink">
    <!-- Generator: Sketch 52.4 (67378) - http://www.bohemiancoding.com/sketch -->
    <title>icon-settings-Active</title>
    <desc>Created with Sketch.</desc>
    <g id="Page-1" stroke="none" stroke-width="1" fill="none" fill-rule="evenodd">
        <g id="DSX-TechDog-Project---Dashboard" transform="translate(-105.000000, -618.000000)" fill="#FDFDFF" fill-rule="nonzero">
            <g id="icon-settings-Active" transform="translate(105.000000, 618.000000)">
                <path d="M8.57981356,4.87813559 C6.43810169,4.87813559 4.69545763,6.62366102 4.69545763,8.76825424 C4.69545763,10.9134237 6.43838983,12.6592373 8.57981356,12.6592373 C10.7212373,12.6592373 12.4638814,10.9134237 12.4638814,8.76825424 C12.4641695,6.62366102 10.7215254,4.87813559 8.57981356,4.87813559 Z M8.57981356,11.9705932 C6.817,11.9705932 5.38266102,10.5339492 5.38266102,8.76825424 C5.38266102,7.00313559 6.817,5.56649153 8.57981356,5.56649153 C10.3426271,5.56649153 11.776678,7.00313559 11.776678,8.76825424 C11.776678,10.5339492 10.3426271,11.9705932 8.57981356,11.9705932 Z M16.885322,8.31472881 C16.819339,8.25018644 16.7311695,8.21359322 16.638678,8.21359322 L16.6337797,8.21359322 L15.8644576,8.22310169 C15.8200847,7.34832203 15.6215593,6.49716949 15.2717627,5.68433898 L15.973661,5.3420339 C16.0575085,5.30111864 16.1211864,5.22822034 16.1514407,5.14062712 C16.1816949,5.05188136 16.1762203,4.95477966 16.1353051,4.8709322 C15.5806441,3.73222034 14.762339,2.71337288 13.7688475,1.92359322 C13.695661,1.86538983 13.6017288,1.83916949 13.5103898,1.84925424 C13.4181864,1.86049153 13.3337627,1.90745763 13.2758475,1.98035593 L12.7923559,2.59120339 C12.0861356,2.08408475 11.2885763,1.70259322 10.4544237,1.47179661 L10.6238475,0.711118644 C10.6659153,0.521525424 10.5469153,0.333372881 10.357322,0.290728814 C9.12986441,0.0141186441 7.80789831,0.0193050847 6.58159322,0.302542373 C6.49111864,0.323 6.41216949,0.379474576 6.36232203,0.459 C6.31333898,0.537949153 6.29720339,0.633322034 6.31823729,0.724372881 L6.49313559,1.48505085 C5.6569661,1.7210339 4.86171186,2.10684746 4.16125424,2.61627119 L3.67459322,2.0100339 C3.55271186,1.85847458 3.33084746,1.83369492 3.18072881,1.95615254 C2.19242373,2.75025424 1.38074576,3.77457627 0.832423729,4.91818644 C0.792084746,5.00261017 0.786898305,5.09884746 0.817728814,5.18701695 C0.847983051,5.27576271 0.913389831,5.34779661 0.996949153,5.38784746 L1.70086441,5.72583051 C1.35798305,6.53491525 1.1649322,7.38116949 1.12401695,8.25738983 L0.350661017,8.25940678 C0.25759322,8.25940678 0.168271186,8.29686441 0.102576271,8.36255932 C0.0368813559,8.42911864 0,8.51844068 0,8.61208475 C0.00288135593,9.90523729 0.287847458,11.1465254 0.847118644,12.3022373 C0.932118644,12.4768475 1.14159322,12.5497458 1.31677966,12.4644576 L2.01867797,12.1235932 C2.4350339,12.8871525 2.98594915,13.5789661 3.63540678,14.150339 L3.15133898,14.7585932 C3.09313559,14.8320678 3.06605085,14.9248475 3.07642373,15.0176271 C3.08679661,15.1104068 3.13376271,15.1956949 3.20723729,15.2527458 C4.20072881,16.0462712 5.37920339,16.6136102 6.61501695,16.8928136 C6.64066102,16.8988644 6.66688136,16.9011695 6.69252542,16.9011695 C6.75850847,16.9011695 6.82305085,16.8824407 6.87981356,16.847 C6.95847458,16.7971525 7.01466102,16.7176271 7.03540678,16.6265763 L7.20627119,15.867339 C8.07816949,16.0232203 8.92615254,16.0232203 9.79661017,15.8641695 L9.97064407,16.6236949 C10.013,16.8132881 10.2014407,16.9348814 10.3910339,16.8884915 C11.6251186,16.6064068 12.8024407,16.0379153 13.7950678,15.242661 C13.946339,15.1210678 13.9711186,14.8997797 13.8501017,14.7476441 L13.3643051,14.1399661 C14.012322,13.5671525 14.5620847,12.8738983 14.9772881,12.1088983 L15.6800508,12.4491864 C15.7644746,12.4895254 15.8598475,12.4947119 15.9497458,12.4644576 C16.0376271,12.4336271 16.1093729,12.3687966 16.1497119,12.2849492 C16.706678,11.1280847 16.9884746,9.88650847 16.9884746,8.5639661 C16.989339,8.47176271 16.9521695,8.38128814 16.885322,8.31472881 Z M15.6627627,11.6602712 L14.9738305,11.3271864 C14.7983559,11.2427627 14.5891695,11.3171017 14.5041695,11.4911356 C14.0699492,12.393 13.4305763,13.1980508 12.6575085,13.8178305 C12.5062373,13.9391356 12.4808814,14.1604237 12.6018983,14.3125593 L13.077322,14.9072712 C12.3232712,15.4555932 11.4695254,15.8696441 10.5748644,16.1171525 L10.4045763,15.3731864 C10.3841186,15.2821356 10.3279322,15.2028983 10.2492712,15.1536271 C10.1711864,15.1029153 10.0729322,15.0867797 9.98418644,15.108678 C8.9840678,15.3377458 8.0159322,15.3377458 7.01638983,15.1115593 C6.92447458,15.091678 6.82967797,15.1078136 6.75130508,15.1570847 C6.67264407,15.2072203 6.61645763,15.2864576 6.59571186,15.3777966 L6.42859322,16.1217627 C5.5330678,15.8751186 4.67816949,15.463661 3.92383051,14.9159153 L4.39781356,14.3206271 C4.45572881,14.2471525 4.48281356,14.154661 4.47244068,14.0618814 C4.4620678,13.9691017 4.41510169,13.8838136 4.34162712,13.8267627 C3.5659661,13.2075593 2.92544068,12.4042373 2.48977966,11.5038136 C2.44915254,11.4191017 2.37711864,11.3548475 2.28952542,11.3243051 C2.20164407,11.2934746 2.10425424,11.2995254 2.02040678,11.3407288 L1.33320339,11.6741017 C0.962372881,10.8143051 0.754338983,9.90437288 0.710830508,8.96245763 L1.46805085,8.96101695 C1.66167797,8.96101695 1.81784746,8.78842373 1.81784746,8.59479661 C1.81784746,7.59669492 2.04,6.62625424 2.47825424,5.71027119 C2.56210169,5.53508475 2.48862712,5.32445763 2.31401695,5.24061017 L1.62422034,4.90983051 C2.06477966,4.09008475 2.65401695,3.34698305 3.35101695,2.73181356 L3.82730508,3.32566102 C3.94832203,3.47722034 4.16961017,3.49998305 4.32116949,3.37983051 C5.09567797,2.75630508 6.01886441,2.30883051 6.99132203,2.08466102 C7.08179661,2.06391525 7.16074576,2.00744068 7.21059322,1.92791525 C7.25957627,1.84925424 7.27571186,1.75359322 7.25467797,1.66254237 L7.08294915,0.918864407 C7.99172881,0.752610169 8.94920339,0.748864407 9.85884746,0.909932203 L9.69316949,1.65389831 C9.65110169,1.84377966 9.77010169,2.03164407 9.95940678,2.07457627 C10.9425254,2.29557627 11.8429492,2.72720339 12.635322,3.35591525 C12.7874576,3.47635593 13.0090339,3.45215254 13.1294746,3.29915254 L13.6025932,2.70155932 C14.3047797,3.31298305 14.8977627,4.05233898 15.3423559,4.86805085 L14.6545763,5.20344068 C14.4805424,5.28872881 14.4082203,5.4990678 14.4926441,5.6739661 C14.9404068,6.59369492 15.1677458,7.57162712 15.1706271,8.58183051 C15.1706271,8.67576271 15.2089492,8.76594915 15.2757966,8.83164407 C15.3417797,8.89705085 15.429661,8.9330678 15.5218644,8.9330678 L15.527339,8.9330678 L16.2799492,8.92327119 C16.2419153,9.87325424 16.0341695,10.7912542 15.6627627,11.6602712 Z" id="Shape"></path>
            </g>
        </g>
    </g>
</svg>