<?xml version="1.0" encoding="UTF-8"?>
<svg width="18px" height="16px" viewBox="0 0 18 16" version="1.1" xmlns="http://www.w3.org/2000/svg" xmlns:xlink="http://www.w3.org/1999/xlink">
    <!-- Generator: Sketch 52.4 (67378) - http://www.bohemiancoding.com/sketch -->
    <title>icon-sessions</title>
    <desc>Created with Sketch.</desc>
    <g id="Page-1" stroke="none" stroke-width="1" fill="none" fill-rule="evenodd">
        <g id="DSX-TechDog-Project---Dashboard" transform="translate(-105.000000, -348.000000)" fill="#DBDBDB" fill-rule="nonzero">
            <g id="icon-sessions" transform="translate(105.000000, 348.000000)">
                <path d="M14.5038689,9.20681967 C14.3255082,9.20681967 14.1815082,9.35108197 14.1815082,9.52918033 L14.1815082,13.6285902 C14.1815082,14.5725902 13.415082,15.3405902 12.4723934,15.3405902 L2.35383607,15.3405902 C1.41140984,15.3405902 0.644721311,14.5720656 0.644721311,13.6285902 L0.644721311,5.43029508 C0.644721311,4.48629508 1.41140984,3.71829508 2.35383607,3.71829508 L8.38006557,3.71829508 C8.55842623,3.71829508 8.70242623,3.57403279 8.70242623,3.39567213 C8.70242623,3.21731148 8.55816393,3.07304918 8.38006557,3.07304918 L2.35383607,3.07304918 C1.05547541,3.07278689 0,4.13036066 0,5.43029508 L0,13.6285902 C0,14.9282623 1.05547541,15.9860984 2.35383607,15.9860984 L12.4723934,15.9860984 C13.7704918,15.9860984 14.8264918,14.9282623 14.8264918,13.6285902 L14.8264918,9.52918033 C14.8257049,9.35081967 14.6819672,9.20681967 14.5038689,9.20681967 Z M13.8491803,0.167081967 C11.7117377,0.167081967 9.97245902,1.9095082 9.97245902,4.05114754 C9.97245902,4.93770492 10.2733115,5.75291803 10.7745574,6.40708197 L7.86937705,11.1900328 C7.78465574,11.3293115 7.81718033,11.5108197 7.94570492,11.6110164 C8.00419672,11.6577049 8.0744918,11.6802623 8.14452459,11.6802623 C8.22767213,11.6802623 8.31029508,11.6485246 8.37245902,11.5860984 L12.3286557,7.62308197 C12.7958033,7.82347541 13.3096393,7.93495082 13.8491803,7.93495082 C15.9874098,7.93495082 17.7269508,6.19252459 17.7269508,4.05088525 C17.7269508,1.9092459 15.9874098,0.167081967 13.8491803,0.167081967 Z M9.81586885,9.22701639 L11.2267541,6.90334426 C11.3854426,7.05022951 11.5548852,7.18452459 11.7361311,7.30334426 L9.81586885,9.22701639 Z M13.8491803,7.28918033 C12.0668852,7.28918033 10.616918,5.83632787 10.616918,4.05088525 C10.616918,2.26544262 12.0668852,0.812852459 13.8491803,0.812852459 C15.6322623,0.812852459 17.0822295,2.26570492 17.0822295,4.05114754 C17.0822295,5.83659016 15.6322623,7.28918033 13.8491803,7.28918033 Z M15.661377,2.43383607 C15.5441311,2.30163934 15.3400656,2.28931148 15.2065574,2.40786885 C15.0735738,2.52616393 15.0622951,2.73022951 15.1805902,2.8637377 C15.4712131,3.19055738 15.6322623,3.61206557 15.6322623,4.05088525 C15.6322623,5.03554098 14.8325246,5.83632787 13.8491803,5.83632787 C13.6708197,5.83632787 13.5268197,5.98085246 13.5268197,6.15868852 C13.5268197,6.33731148 13.671082,6.48157377 13.8491803,6.48157377 C15.1876721,6.48157377 16.2767213,5.39095082 16.2767213,4.05036066 C16.2767213,3.45337705 16.0579672,2.87921311 15.661377,2.43383607 Z" id="Shape"></path>
            </g>
        </g>
    </g>
</svg>