<?xml version="1.0" encoding="UTF-8"?>
<svg width="26px" height="26px" viewBox="0 0 26 26" version="1.1" xmlns="http://www.w3.org/2000/svg" xmlns:xlink="http://www.w3.org/1999/xlink">
    <!-- Generator: Sketch 52.4 (67378) - http://www.bohemiancoding.com/sketch -->
    <title>icon-language</title>
    <desc>Created with Sketch.</desc>
    <g id="Page-1" stroke="none" stroke-width="1" fill="none" fill-rule="evenodd">
        <g id="DSX-TechDog-Project---Dashboard" transform="translate(-1115.000000, -68.000000)">
            <g id="icon-language" transform="translate(1116.000000, 68.000000)">
                <g id="icon-lang" transform="translate(3.000000, 3.859543)" fill="#717171">
                    <path d="M16.1746875,3.9195 L15.9103125,4.0033125 L14.502375,4.12875 L14.1046875,4.7638125 L13.816125,4.672125 L12.695625,3.661875 L12.5330625,3.1365 L12.315375,2.57625 L11.611125,1.9445625 L10.7803125,1.782 L10.7611875,2.16225 L11.575125,2.9565 L11.973375,3.425625 L11.525625,3.659625 L11.161125,3.5521875 L10.6149375,3.324375 L10.6335,2.8839375 L9.916875,2.5891875 L9.6789375,3.62475 L8.9566875,3.7884375 L9.028125,4.366125 L9.9691875,4.54725 L10.13175,3.6241875 L10.9085625,3.7389375 L11.2696875,3.9504375 L11.8490625,3.9504375 L12.245625,4.7446875 L13.2969375,5.8111875 L13.219875,6.22575 L12.3721875,6.11775 L10.9074375,6.8574375 L9.85275,8.1225 L9.7155,8.68275 L9.3369375,8.68275 L8.6315625,8.357625 L7.9464375,8.68275 L8.116875,9.4055625 L8.415,9.061875 L8.93925,9.0455625 L8.9026875,9.6946875 L9.3369375,9.8218125 L9.770625,10.3089375 L10.4788125,10.1098125 L11.2876875,10.2375 L12.2270625,10.4900625 L12.6961875,10.5451875 L13.4915625,11.448 L15.026625,12.3508125 L14.0338125,14.2475625 L12.985875,14.7346875 L12.5881875,15.818625 L11.0716875,16.831125 L10.91025,17.415 C14.787,16.48125 17.6709375,12.9988125 17.6709375,8.8351875 C17.6698125,7.016625 17.1185625,5.3240625 16.1746875,3.9195 Z" id="Path"></path>
                    <path d="M9.8521875,13.4533125 L9.2086875,12.26025 L9.7993125,11.0295 L9.2086875,10.852875 L8.5455,10.186875 L7.07625,9.85725 L6.5885625,8.836875 L6.5885625,9.4426875 L6.3736875,9.4426875 L5.1075,7.7259375 L5.1075,6.31575 L4.179375,4.8065625 L2.705625,5.06925 L1.7128125,5.06925 L1.2133125,4.741875 L1.850625,4.23675 L1.215,4.3835625 C0.448875,5.6919375 0.00225,7.210125 0.00225,8.8363125 C0.00225,13.714875 3.9571875,17.6715 8.8363125,17.6715 C9.2120625,17.6715 9.5805,17.6383125 9.945,17.5944375 L9.85275,16.524 C9.85275,16.524 10.2583125,14.934375 10.2583125,14.880375 C10.25775,14.8258125 9.8521875,13.4533125 9.8521875,13.4533125 Z" id="Path"></path>
                    <path d="M3.285,2.8490625 L4.854375,2.63025 L5.57775,2.2336875 L6.3916875,2.46825 L7.6921875,2.39625 L8.1376875,1.6959375 L8.787375,1.8028125 L10.3651875,1.654875 L10.8,1.175625 L11.413125,0.766125 L12.2805,0.896625 L12.596625,0.8488125 C11.4541875,0.3110625 10.1829375,0 8.83575,0 C6.0935625,0 3.641625,1.249875 2.02275,3.2124375 L2.02725,3.2124375 L3.285,2.8490625 Z M9.20925,0.878625 L10.1115,0.3819375 L10.690875,0.716625 L9.8521875,1.3550625 L9.0511875,1.4355 L8.690625,1.2015 L9.20925,0.878625 Z M6.5368125,0.9511875 L6.9350625,1.117125 L7.4565,0.9511875 L7.7405625,1.443375 L6.5368125,1.7595 L5.958,1.420875 C5.9574375,1.420875 6.523875,1.056375 6.5368125,0.9511875 Z" id="Shape" fill-rule="nonzero"></path>
                </g>
                <circle id="Oval" stroke="#717171" fill-rule="nonzero" cx="12" cy="12.859543" r="12"></circle>
            </g>
        </g>
    </g>
</svg>