<?xml version="1.0" encoding="UTF-8"?>
<svg width="14px" height="14px" viewBox="0 0 14 14" version="1.1" xmlns="http://www.w3.org/2000/svg" xmlns:xlink="http://www.w3.org/1999/xlink">
    <!-- Generator: Sketch 52.4 (67378) - http://www.bohemiancoding.com/sketch -->
    <title>icon-MenuMgt-Active</title>
    <desc>Created with Sketch.</desc>
    <g id="Page-1" stroke="none" stroke-width="1" fill="none" fill-rule="evenodd">
        <g id="DSX-TechDog-Project---Dashboard" transform="translate(-107.000000, -566.000000)" fill="#FDFDFF" fill-rule="nonzero">
            <g id="icon-MenuMgt-Active" transform="translate(107.000000, 566.000000)">
                <path d="M9.65754386,3.62796491 L4.22529825,3.62796491 C4.0582807,3.62796491 3.9234386,3.76305263 3.9234386,3.93007018 C3.9234386,4.09708772 4.05852632,4.23217544 4.22529825,4.23217544 L9.65754386,4.23217544 C9.8245614,4.23217544 9.95940351,4.09708772 9.95940351,3.93007018 C9.95940351,3.76305263 9.8245614,3.62796491 9.65754386,3.62796491 Z M9.65754386,5.44157895 L4.22529825,5.44157895 C4.0582807,5.44157895 3.9234386,5.57666667 3.9234386,5.7434386 C3.9234386,5.91045614 4.05852632,6.04578947 4.22529825,6.04578947 L9.65754386,6.04578947 C9.8245614,6.04578947 9.95940351,5.91045614 9.95940351,5.7434386 C9.95964912,5.57666667 9.8245614,5.44157895 9.65754386,5.44157895 Z M9.65754386,7.2554386 L4.22529825,7.2554386 C4.0582807,7.2554386 3.9234386,7.39077193 3.9234386,7.55729825 C3.9234386,7.72480702 4.05852632,7.85964912 4.22529825,7.85964912 L9.65754386,7.85964912 C9.8245614,7.85964912 9.95940351,7.72431579 9.95940351,7.55729825 C9.95964912,7.39077193 9.8245614,7.2554386 9.65754386,7.2554386 Z M12.8269474,0 L1.05638596,0 C0.474035088,0 0,0.47477193 0,1.05810526 L0,12.6024561 C0,13.321614 0.584070175,13.9064211 1.30150877,13.9064211 L3.9234386,13.9064211 C4.09045614,13.9064211 4.22529825,13.7710877 4.22529825,13.6043158 L4.22529825,12.6977544 L9.65754386,12.6977544 L9.65754386,13.6043158 C9.65754386,13.7718246 9.79263158,13.9064211 9.95940351,13.9064211 L13.1852982,13.9064211 C13.5696842,13.9064211 13.8833333,13.5930175 13.8833333,13.2074035 L13.8833333,1.05810526 C13.8828421,0.47477193 13.4095439,0 12.8269474,0 Z M9.65754386,12.0920702 L4.22529825,12.0920702 L4.22529825,10.8831579 L9.65754386,10.8831579 L9.65754386,12.0920702 Z M13.2793684,13.2069123 C13.2793684,13.2587368 13.2366316,13.3014737 13.184807,13.3014737 L10.2610175,13.3014737 L10.2610175,10.580807 C10.2610175,10.4135439 10.1261754,10.2789474 9.95915789,10.2789474 L3.9234386,10.2789474 C3.75666667,10.2789474 3.62157895,10.4137895 3.62157895,10.580807 L3.62157895,13.3014737 L1.30150877,13.3014737 C0.916631579,13.3014737 0.603473684,12.9880702 0.603473684,12.6024561 L0.603473684,1.05810526 C0.603473684,0.808070175 0.806842105,0.604701754 1.05638596,0.604701754 L12.827193,0.604701754 C13.0762456,0.604701754 13.279614,0.808070175 13.279614,1.05810526 L13.279614,13.2069123 L13.2793684,13.2069123 Z" id="Shape"></path>
            </g>
        </g>
    </g>
</svg>