<?xml version="1.0" encoding="UTF-8"?>
<svg width="10px" height="10px" viewBox="0 0 10 10" version="1.1" xmlns="http://www.w3.org/2000/svg" xmlns:xlink="http://www.w3.org/1999/xlink">
    <!-- Generator: Sketch 52.4 (67378) - http://www.bohemiancoding.com/sketch -->
    <title>icon-x</title>
    <desc>Created with Sketch.</desc>
    <g id="Page-1" stroke="none" stroke-width="1" fill="none" fill-rule="evenodd">
        <g id="DSX-TechDog-Project---IP-Table-Management-(IP-Table-Status)" transform="translate(-1014.000000, -379.000000)" fill="#F02323">
            <g id="icon-x" transform="translate(1014.000000, 379.000000)">
                <path d="M8.04117647,0.0117647059 C7.82058824,0.0117647059 7.62941176,0.0911764706 7.47058824,0.25 L5,2.72058824 L2.52941176,0.25 C2.37058824,0.0911764706 2.18235294,0.0117647059 1.95882353,0.0117647059 C1.73823529,0.0117647059 1.54705882,0.0911764706 1.38823529,0.25 L0.25,1.39117647 C0.0911764706,1.55 0.0117647059,1.73823529 0.0117647059,1.96176471 C0.0117647059,2.18235294 0.0911764706,2.37352941 0.25,2.53235294 L2.72058824,5.00294118 L0.25,7.47352941 C0.0911764706,7.63235294 0.0117647059,7.82058824 0.0117647059,8.04411765 C0.0117647059,8.26470588 0.0911764706,8.45588235 0.25,8.61470588 L1.39117647,9.75588235 C1.55,9.91470588 1.73823529,9.99411765 1.96176471,9.99411765 C2.18235294,9.99411765 2.37352941,9.91470588 2.53235294,9.75588235 L5.00294118,7.28529412 L7.47352941,9.75588235 C7.63235294,9.91470588 7.82058824,9.99411765 8.04411765,9.99411765 C8.26470588,9.99411765 8.45588235,9.91470588 8.61470588,9.75588235 L9.75588235,8.61470588 C9.91470588,8.45588235 9.99411765,8.26764706 9.99411765,8.04411765 C9.99411765,7.82352941 9.91470588,7.63235294 9.75588235,7.47352941 L7.28529412,5.00294118 L9.75588235,2.53235294 C9.91470588,2.37352941 9.99411765,2.18529412 9.99411765,1.96176471 C9.99411765,1.74117647 9.91470588,1.55 9.75588235,1.39117647 L8.61470588,0.25 C8.45294118,0.0911764706 8.26176471,0.0117647059 8.04117647,0.0117647059 Z" id="Path"></path>
            </g>
        </g>
    </g>
</svg>