<?xml version="1.0" encoding="UTF-8"?>
<svg width="13px" height="17px" viewBox="0 0 13 17" version="1.1" xmlns="http://www.w3.org/2000/svg" xmlns:xlink="http://www.w3.org/1999/xlink">
    <!-- Generator: Sketch 52.4 (67378) - http://www.bohemiancoding.com/sketch -->
    <title>icon-jobcenter</title>
    <desc>Created with Sketch.</desc>
    <g id="Page-1" stroke="none" stroke-width="1" fill="none" fill-rule="evenodd">
        <g id="DSX-TechDog-Project---Dashboard" transform="translate(-107.000000, -457.000000)" fill="#DBDBDB" fill-rule="nonzero">
            <g id="icon-jobcenter" transform="translate(107.000000, 457.000000)">
                <path d="M9.52167606,4.60484507 L7.70076056,4.60891549 L7.1426338,2.87228169 C7.04614085,2.57226761 6.77030986,2.37090141 6.45664789,2.37090141 C6.14250704,2.37090141 5.86643662,2.57226761 5.77066197,2.87156338 L5.21205634,4.60891549 L3.38994366,4.60484507 C3.07652113,4.60484507 2.80092958,4.80501408 2.70395775,5.10311268 C2.60746479,5.40240845 2.71305634,5.72708451 2.9678169,5.91073239 L4.44394366,6.97838028 L3.87576056,8.71142254 C3.7785493,9.01143662 3.88366197,9.33587324 4.13722535,9.51976056 C4.38432394,9.70149296 4.73653521,9.7024507 4.98698592,9.51904225 L6.45712676,8.44349296 L7.92774648,9.51976056 C8.05249296,9.61074648 8.19950704,9.65839437 8.35202817,9.65839437 C8.50646479,9.65839437 8.65323944,9.61074648 8.77583099,9.52095775 C9.03107042,9.33587324 9.1361831,9.01023944 9.03801408,8.71094366 L8.47030986,6.97838028 L9.94667606,5.91025352 C10.2009577,5.72540845 10.3067887,5.40073239 10.2098169,5.10383099 C10.1130845,4.80501408 9.83701408,4.60484507 9.52167606,4.60484507 Z M9.60116901,5.43233803 L7.95049296,6.62664789 C7.8468169,6.70135211 7.80347887,6.83567606 7.84322535,6.95778873 L8.47797183,8.89507042 C8.4954507,8.94990141 8.47677465,9.00976056 8.42912676,9.04423944 C8.37309859,9.08446479 8.33095775,9.08494366 8.27349296,9.04376056 L6.63023944,7.84083099 C6.57828169,7.803 6.51746479,7.78384507 6.45664789,7.78384507 C6.39583099,7.78384507 6.33477465,7.803 6.28305634,7.84083099 L4.64028169,9.04304225 C4.60053521,9.07129577 4.55528169,9.09643662 4.48273239,9.04304225 C4.43628169,9.00976056 4.4173662,8.94990141 4.43460563,8.89530986 L5.06959155,6.95802817 C5.10957746,6.83591549 5.066,6.70183099 4.96256338,6.62688732 L3.31212676,5.43329577 C3.26519718,5.39929577 3.24556338,5.33991549 3.26328169,5.28604225 C3.281,5.23025352 3.33104225,5.19433803 3.3901831,5.19433803 L5.4256338,5.19912676 L5.42635211,5.19912676 C5.55373239,5.19912676 5.66698592,5.11676056 5.70625352,4.99464789 L6.32998592,3.05257746 C6.36566197,2.94267606 6.54715493,2.94219718 6.58307042,3.05329577 L7.20656338,4.99464789 C7.24583099,5.11676056 7.35932394,5.19912676 7.48670423,5.19912676 L7.4871831,5.19912676 L9.52383099,5.19433803 C9.58177465,5.19433803 9.6318169,5.23049296 9.64953521,5.28604225 C9.66725352,5.33991549 9.64738028,5.39857746 9.60116901,5.43233803 Z M6.47723944,0 C2.93238028,0 0.0486056338,2.88832394 0.0486056338,6.43940845 C0.0486056338,8.80743662 1.32432394,10.9554225 3.39090141,12.0881972 L3.39090141,16.49 C3.39090141,16.6022958 3.45483099,16.7052535 3.5556338,16.7548169 C3.655,16.8034225 3.77567606,16.7916901 3.86546479,16.7227324 L6.50190141,14.676507 L9.1414507,16.7227324 C9.19388732,16.7636761 9.25757746,16.7842676 9.32150704,16.7842676 C9.36604225,16.7842676 9.40985915,16.7744507 9.45104225,16.7548169 C9.55208451,16.7052535 9.61577465,16.6018169 9.61577465,16.49 L9.61577465,12.0587465 C11.6493099,10.9175915 12.9051549,8.78133803 12.9051549,6.43916901 C12.9056338,2.88832394 10.0220986,0 6.47723944,0 Z M9.1826338,11.6232113 C9.0995493,11.6670282 9.04376056,11.7481972 9.02939437,11.8406197 C9.02580282,11.8638451 9.02532394,11.8865915 9.027,11.9095775 L9.027,15.8887746 L6.68123944,14.0700141 C6.62808451,14.0293099 6.56535211,14.0084789 6.50142254,14.0084789 C6.43749296,14.0084789 6.37452113,14.0293099 6.32112676,14.0700141 L3.97871831,15.8887746 L3.97871831,11.9107746 C3.97871831,11.8003944 3.91670423,11.6991127 3.81853521,11.6481127 C1.85635211,10.6417606 0.636901408,8.64533803 0.636901408,6.43940845 C0.636901408,3.21371831 3.25657746,0.589492958 6.477,0.589492958 C9.69742254,0.589492958 12.317338,3.21371831 12.317338,6.43940845 C12.317338,8.62259155 11.1163239,10.6091972 9.1826338,11.6232113 Z" id="Shape"></path>
            </g>
        </g>
    </g>
</svg>