<?xml version="1.0" encoding="UTF-8"?>
<svg width="10px" height="13px" viewBox="0 0 10 13" version="1.1" xmlns="http://www.w3.org/2000/svg" xmlns:xlink="http://www.w3.org/1999/xlink">
    <!-- Generator: Sketch 52.4 (67378) - http://www.bohemiancoding.com/sketch -->
    <title>icon-delete</title>
    <desc>Created with Sketch.</desc>
    <g id="Page-1" stroke="none" stroke-width="1" fill="none" fill-rule="evenodd">
        <g id="DSX-TechDog-Project---Users-(User-Lists)" transform="translate(-1187.000000, -377.000000)" fill="#F02323" fill-rule="nonzero">
            <g id="Group-7" transform="translate(1144.000000, 320.000000)">
                <g id="Group-4" transform="translate(1.000000, 43.000000)">
                    <g id="icon-delete" transform="translate(42.000000, 14.000000)">
                        <path d="M1.33701728,12.0940595 C1.33701728,12.0940595 1.52716388,12.9746766 2.50590294,12.9746766 L6.93134027,12.9746766 C7.91003179,12.9746766 8.10017838,12.0940595 8.10017838,12.0940595 L8.97383518,3.45993309 L0.463408031,3.45993309 L1.33701728,12.0940595 Z M6.42071655,4.75742007 C6.42071655,4.51853903 6.61119598,4.32494052 6.84622839,4.32494052 C7.08126081,4.32494052 7.27178779,4.51853903 7.27178779,4.75742007 L6.84622839,11.2447584 C6.84622839,11.4836394 6.65570141,11.6772379 6.42071655,11.6772379 C6.18573168,11.6772379 5.9952047,11.4835911 5.9952047,11.2447584 L6.42071655,4.75742007 Z M4.29310976,4.75742007 C4.29310976,4.51853903 4.48363674,4.32494052 4.71862161,4.32494052 C4.95365402,4.32494052 5.14413345,4.51853903 5.14413345,4.75742007 L5.14413345,11.2447584 C5.14413345,11.4836394 4.95365402,11.6772379 4.71862161,11.6772379 C4.48358919,11.6772379 4.29310976,11.4835911 4.29310976,11.2447584 L4.29310976,4.75742007 Z M2.59101482,4.32489219 C2.82604723,4.32489219 3.01652667,4.51849071 3.01652667,4.75737175 L3.44208606,11.24471 C3.44208606,11.4835911 3.25155908,11.6771896 3.01652667,11.6771896 C2.7815418,11.6771896 2.59101482,11.4835428 2.59101482,11.24471 L2.16550297,4.75742007 C2.16550297,4.51853903 2.35602995,4.32489219 2.59101482,4.32489219 Z M8.71849954,1.73064312 L6.84622839,1.73064312 L6.84622839,0.865007435 C6.84622839,0.208869888 6.63744277,0 5.9952047,0 L3.44203851,0 C2.8529597,0 2.59101482,0.290011152 2.59101482,0.865007435 L2.59101482,1.73069145 L0.718743669,1.73069145 C0.342444556,1.73069145 0.0378961831,2.02099257 0.0378961831,2.37972491 C0.0378961831,2.73850558 0.342444556,3.02880669 0.718743669,3.02880669 L8.71849954,3.02880669 C9.09479866,3.02880669 9.39934703,2.73850558 9.39934703,2.37972491 C9.39934703,2.02099257 9.09479866,1.73064312 8.71849954,1.73064312 Z M5.9952047,1.73064312 L3.44208606,1.73064312 L3.44213361,0.864959108 L5.99525225,0.864959108 L5.99525225,1.73064312 L5.9952047,1.73064312 Z" id="Shape"></path>
                    </g>
                </g>
            </g>
        </g>
    </g>
</svg>