<?xml version="1.0" encoding="UTF-8"?>
<svg width="85px" height="26px" viewBox="0 0 85 26" version="1.1" xmlns="http://www.w3.org/2000/svg" xmlns:xlink="http://www.w3.org/1999/xlink">
    <!-- Generator: Sketch 52.4 (67378) - http://www.bohemiancoding.com/sketch -->
    <title>logo-SampleOnly</title>
    <desc>Created with Sketch.</desc>
    <defs>
        <linearGradient x1="49.7564715%" y1="99.989404%" x2="49.7564715%" y2="-0.109271523%" id="linearGradient-1">
            <stop stop-color="#00ABC5" offset="0%"></stop>
            <stop stop-color="#00929E" offset="43.88%"></stop>
            <stop stop-color="#007B8D" offset="100%"></stop>
        </linearGradient>
        <linearGradient x1="-23.5826839%" y1="49.8184874%" x2="130.953129%" y2="49.8184874%" id="linearGradient-2">
            <stop stop-color="#007B8D" offset="0%"></stop>
            <stop stop-color="#00929E" offset="56.12%"></stop>
            <stop stop-color="#00ABC5" offset="100%"></stop>
        </linearGradient>
        <linearGradient x1="30.2958904%" y1="55.6166667%" x2="67.0917808%" y2="38.3855556%" id="linearGradient-3">
            <stop stop-color="#007B8D" offset="0%"></stop>
            <stop stop-color="#008393" offset="20.04%"></stop>
            <stop stop-color="#00929E" offset="42.35%"></stop>
            <stop stop-color="#00AAB5" offset="100%"></stop>
        </linearGradient>
        <linearGradient x1="15.8408482%" y1="66.1419048%" x2="103.200037%" y2="42.38%" id="linearGradient-4">
            <stop stop-color="#007B8D" offset="0%"></stop>
            <stop stop-color="#00929E" offset="39.29%"></stop>
            <stop stop-color="#6AC9C8" offset="100%"></stop>
        </linearGradient>
        <linearGradient x1="50.2294118%" y1="99.4792453%" x2="50.2294118%" y2="-1.80377358%" id="linearGradient-5">
            <stop stop-color="#B1DED3" offset="0%"></stop>
            <stop stop-color="#00B3B5" offset="43.88%"></stop>
            <stop stop-color="#007B8D" offset="100%"></stop>
        </linearGradient>
        <linearGradient x1="50.385%" y1="101.271429%" x2="50.385%" y2="-0.29047619%" id="linearGradient-6">
            <stop stop-color="#00ABC5" offset="0%"></stop>
            <stop stop-color="#00929E" offset="43.88%"></stop>
            <stop stop-color="#007B8D" offset="100%"></stop>
        </linearGradient>
        <linearGradient x1="1.07492958%" y1="51.2470588%" x2="100.809014%" y2="51.2470588%" id="linearGradient-7">
            <stop stop-color="#FFCB05" offset="0%"></stop>
            <stop stop-color="#F37021" offset="60.71%"></stop>
            <stop stop-color="#F04E23" offset="100%"></stop>
        </linearGradient>
        <linearGradient x1="-1.2793585%" y1="50.4436145%" x2="101.30579%" y2="50.4436145%" id="linearGradient-8">
            <stop stop-color="#F04E23" offset="0%"></stop>
            <stop stop-color="#F37021" offset="39.29%"></stop>
            <stop stop-color="#FBB040" offset="100%"></stop>
        </linearGradient>
        <linearGradient x1="0.308672453%" y1="50.4209302%" x2="100.358121%" y2="50.4209302%" id="linearGradient-9">
            <stop stop-color="#F04E23" offset="0%"></stop>
            <stop stop-color="#F37021" offset="39.29%"></stop>
            <stop stop-color="#FFD400" offset="100%"></stop>
        </linearGradient>
        <linearGradient x1="49.8666667%" y1="98.962069%" x2="49.8666667%" y2="0.84137931%" id="linearGradient-10">
            <stop stop-color="#F04E23" offset="0%"></stop>
            <stop stop-color="#F37021" offset="39.29%"></stop>
            <stop stop-color="#FBB040" offset="100%"></stop>
        </linearGradient>
    </defs>
    <g id="Page-1" stroke="none" stroke-width="1" fill="none" fill-rule="evenodd">
        <g id="DSX-TechDog-Project---Dashboard" transform="translate(-71.000000, -57.000000)">
            <g id="logo-SampleOnly" transform="translate(71.000000, 57.000000)">
                <g id="sample1-01">
                    <path d="M10.300247,20 C10.4324957,18.410596 9.77125228,16.8211921 8.58101409,15.3642384 C8.58101409,15.3642384 8.58101409,15.2317881 8.4487654,15.2317881 C7.91977065,14.7019868 7.25852721,14.1721854 6.46503508,13.5099338 C6.06828901,13.1125828 5.67154295,12.8476821 5.14254819,12.4503311 C4.87805082,12.3178808 4.48130475,12.0529801 4.21680738,11.7880795 C2.89432049,10.7284768 1.30733623,9.53642384 0.513844105,7.81456954 C-0.147399336,6.49006623 -0.147399336,4.76821192 0.381595417,3.31125828 C0.91059017,1.85430464 1.83633099,0.662251656 3.15881787,0 C3.15881787,0.264900662 3.15881787,0.397350993 3.15881787,0.662251656 L3.29106656,0.927152318 C3.29106656,1.05960265 3.42331525,1.32450331 3.42331525,1.45695364 C3.68781262,2.1192053 4.21680738,2.78145695 5.01029951,3.57615894 C5.67154295,4.2384106 6.72953245,5.03311258 7.78752196,5.82781457 C8.05201933,6.09271523 8.31651671,6.22516556 8.58101409,6.49006623 C9.90350097,7.54966887 10.8292418,8.21192053 11.6227339,9.13907285 C12.416226,10.0662252 12.8129721,11.1258278 12.9452208,12.4503311 C12.9452208,12.4503311 12.9452208,12.4503311 12.9452208,12.4503311 C13.0774695,13.3774834 12.9452208,14.3046358 12.8129721,15.2317881 C12.416226,17.0860927 11.6227339,18.6754967 10.300247,20 Z" id="Path" fill="url(#linearGradient-1)"></path>
                    <g id="Group">
                        <path d="M10.9090909,14.025 C6.27272727,9.625 4.22727273,3.4375 3.68181818,1.65 C3.68181818,1.5125 3.54545455,1.375 3.54545455,1.1 C3.54545455,1.1 3.54545455,1.1 3.54545455,1.1 C3.54545455,1.1 3.54545455,1.1 3.54545455,1.1 C3.40909091,0.825 3.40909091,0.4125 3.54545455,0 C3.54545455,0 -1.36363636,5.225 6.81818182,14.4375 C6.81818182,14.4375 6.81818182,14.4375 6.81818182,14.4375 C7.5,14.9875 8.18181818,15.5375 8.86363636,16.225 C8.86363636,16.225 8.86363636,16.225 9,16.3625 C9.27272727,15.2625 9.95454545,14.575 10.9090909,14.025 Z" id="Path" fill="url(#linearGradient-2)"></path>
                        <path d="M9,6.875 C7.90909091,5.9125 6.27272727,4.8125 5.18181818,3.7125 C4.5,3.1625 3.95454545,2.3375 3.68181818,1.65 C4.22727273,3.4375 6.40909091,9.625 10.9090909,14.025 C11.7272727,13.6125 12.6818182,13.3375 13.6363636,13.2 C13.2272727,10.3125 11.5909091,8.8 9,6.875 Z" id="Path" fill="url(#linearGradient-3)"></path>
                        <path d="M3.54545455,0 C2.04545455,0.6875 0.954545455,2.0625 0.409090909,3.7125 C-0.136363636,5.225 -5.55111512e-17,7.0125 0.681818182,8.525 C1.5,10.3125 3,11.55 4.5,12.65 C5.18181818,13.2 6,13.75 6.81818182,14.4375 C6.81818182,14.4375 6.81818182,14.4375 6.81818182,14.4375 C-1.36363636,5.225 3.54545455,0 3.54545455,0 Z" id="Path" fill="url(#linearGradient-4)"></path>
                        <path d="M10.6363636,21.45 C12.1363636,20.075 13.0909091,18.15 13.5,16.225 C12.5454545,15.5375 11.7272727,14.85 10.9090909,14.1625 C9.95454545,14.7125 9.27272727,15.4 8.86363636,16.5 C10.0909091,17.7375 11.0454545,19.525 10.6363636,21.45 Z" id="Path" fill="url(#linearGradient-5)"></path>
                        <path d="M13.5,16.0875 C13.6363636,15.125 13.6363636,14.1625 13.6363636,13.2 C13.6363636,13.2 13.6363636,13.2 13.6363636,13.2 C12.6818182,13.3375 11.7272727,13.6125 10.9090909,14.025 C11.7272727,14.85 12.5454545,15.5375 13.5,16.0875 Z" id="Path" fill="url(#linearGradient-6)"></path>
                    </g>
                    <g id="Group" transform="translate(0.000000, 9.000000)">
                        <path d="M6.6,5.53846154 C4.675,4.15384615 2.8875,3.32307692 0.9625,0.830769231 C0.55,1.93846154 0.4125,3.18461538 0.55,4.29230769 C1.925,4.01538462 4.2625,3.87692308 6.6,5.53846154 Z" id="Path" fill="url(#linearGradient-7)"></path>
                        <path d="M7.425,16.2 C7.425,16.4769231 7.2875,16.7538462 7.15,16.8923077 C8.1125,15.6461538 9.075,14.2615385 9.4875,12.7384615 C9.9,11.2153846 9.9,9.41538462 9.075,8.03076923 C8.8,7.75384615 8.6625,7.33846154 8.3875,7.06153846 C8.25,7.06153846 8.1125,6.92307692 7.975,6.64615385 C7.975,6.64615385 7.975,6.64615385 7.975,6.64615385 C7.975,6.64615385 7.975,6.64615385 7.975,6.64615385 C7.5625,6.23076923 7.15,5.95384615 6.875,5.67692308 C6.875,5.67692308 6.7375,5.67692308 6.7375,5.53846154 C4.2625,3.87692308 2.0625,4.01538462 0.6875,4.29230769 C0.6875,4.29230769 0.6875,4.29230769 0.6875,4.29230769 C7.5625,10.1076923 7.7,14.5384615 7.425,16.2 Z" id="Path" fill="url(#linearGradient-8)"></path>
                        <path d="M0.55,4.29230769 C0.55,4.29230769 3.7125,7.06153846 5.9125,12.1846154 C5.9125,12.1846154 5.9125,12.1846154 5.9125,12.1846154 C6.4625,12.7384615 7.0125,13.4307692 7.15,14.2615385 C7.2875,14.9538462 7.5625,15.6461538 7.425,16.2 C7.7,14.5384615 7.5625,10.1076923 0.55,4.29230769 Z" id="Path" fill="url(#linearGradient-9)"></path>
                        <path d="M0.55,4.29230769 C0.6875,6.36923077 1.375,8.30769231 2.75,9.83076923 C3.4375,10.5230769 4.8125,11.4923077 5.6375,12.0461538 C5.775,12.1846154 5.775,12.1846154 5.9125,12.3230769 C5.9125,12.3230769 5.9125,12.3230769 5.9125,12.3230769 C3.7125,7.06153846 0.55,4.29230769 0.55,4.29230769 Z" id="Path" fill="url(#linearGradient-10)"></path>
                    </g>
                </g>
                <g id="TechDogLogo-01" transform="translate(21.000000, 4.000000)" fill="#FDFDFF">
                    <polygon id="Path" points="7.32857143 2.80210084 5.20504202 2.80210084 5.20504202 14.992437 2.14747899 14.992437 2.14747899 2.80210084 0.00798319328 2.80210084 0.00798319328 0.00798319328 7.32857143 0.00798319328 7.32857143 2.80210084"></polygon>
                    <path d="M14.002521,3.67226891 C14.2739496,3.67226891 14.5773109,3.72016807 14.8966387,3.82394958 C15.2159664,3.92773109 15.5193277,4.08739496 15.7987395,4.31890756 C16.0781513,4.54243697 16.3096639,4.83781513 16.5012605,5.20504202 C16.6848739,5.57226891 16.7806723,6.01932773 16.7806723,6.55420168 L16.7806723,9.96302521 L12.0705882,9.96302521 L12.0705882,11.7752101 L10.9369748,12.389916 L16.7726891,12.389916 L16.7726891,15.0004202 L11.7752101,15.0004202 C11.3521008,15.0004202 10.9689076,14.9285714 10.6256303,14.7768908 C10.2823529,14.6252101 9.99495798,14.4176471 9.75546218,14.1621849 C9.51596639,13.8987395 9.33235294,13.5953782 9.19663866,13.2361345 C9.06890756,12.8768908 9.00504202,12.5016807 9.00504202,12.102521 L9.00504202,6.54621849 C9.00504202,6.01134454 9.10084034,5.56428571 9.28445378,5.19705882 C9.46806723,4.83781513 9.69957983,4.54243697 9.9710084,4.31092437 C10.242437,4.08739496 10.5457983,3.9197479 10.8731092,3.81596639 C11.2004202,3.71218487 11.5037815,3.66428571 11.7752101,3.66428571 L14.002521,3.66428571 L14.002521,3.67226891 Z M14.1701681,7.87941176 L14.1701681,6.28277311 L12.0705882,6.28277311 L12.0705882,7.14495798 L12.0705882,7.88739496 L14.1701681,7.88739496 L14.1701681,7.87941176 Z" id="Shape" fill-rule="nonzero"></path>
                    <path d="M26.2327731,14.992437 L21.2352941,14.992437 C20.8121849,14.992437 20.4289916,14.9205882 20.0857143,14.7689076 C19.742437,14.6172269 19.455042,14.4096639 19.2155462,14.1542017 C18.9760504,13.8907563 18.792437,13.587395 18.6567227,13.2281513 C18.5289916,12.8689076 18.4651261,12.4936975 18.4651261,12.0945378 L18.4651261,6.54621849 C18.4651261,6.01134454 18.5609244,5.56428571 18.7445378,5.19705882 C18.9281513,4.83781513 19.1596639,4.54243697 19.4470588,4.31092437 C19.7264706,4.08739496 20.0298319,3.9197479 20.3491597,3.81596639 C20.6684874,3.71218487 20.9718487,3.66428571 21.2432773,3.66428571 L26.2407563,3.66428571 L26.2407563,6.23487395 L23.5264706,7.75966387 L23.5264706,6.28277311 L21.5306723,6.28277311 L21.5306723,11.7752101 L20.3970588,12.389916 L23.5184874,12.389916 L23.5184874,10.9928571 L26.2327731,10.9928571 L26.2327731,14.992437 Z" id="Path"></path>
                    <path d="M27.8773109,14.992437 L27.8773109,0.00798319328 L30.8390756,0.00798319328 L30.8390756,2.98571429 L29.8092437,3.67226891 L32.9546218,3.67226891 C33.2579832,3.67226891 33.5693277,3.72016807 33.8966387,3.80798319 C34.2239496,3.89579832 34.5193277,4.04747899 34.7987395,4.2710084 C35.0781513,4.48655462 35.3016807,4.78193277 35.4852941,5.15714286 C35.6609244,5.52436975 35.7567227,5.99537815 35.7567227,6.55420168 L35.7567227,15.0004202 L32.962605,15.0004202 L32.962605,6.83361345 C32.962605,6.64201681 32.8987395,6.47436975 32.7789916,6.33067227 C32.6592437,6.18697479 32.4357143,6.11512605 32.1243697,6.11512605 L30.8470588,6.11512605 L30.8470588,14.992437 L27.8773109,14.992437 Z" id="Path"></path>
                    <path d="M42.3508403,0.00798319328 C42.6542017,0.00798319328 42.9655462,0.0558823529 43.2848739,0.143697479 C43.6042017,0.231512605 43.907563,0.383193277 44.1789916,0.606722689 C44.4504202,0.822268908 44.6819328,1.11764706 44.857563,1.49285714 C45.0331933,1.86008403 45.1210084,2.33907563 45.1210084,2.91386555 L45.1210084,12.102521 C45.1210084,12.4298319 45.0731092,12.7651261 44.9852941,13.1084034 C44.897479,13.4516807 44.7457983,13.7630252 44.5302521,14.042437 C44.3147059,14.3218487 44.0352941,14.5533613 43.6760504,14.7289916 C43.3168067,14.9046218 42.8777311,14.992437 42.3428571,14.992437 L37.2655462,14.992437 L37.2655462,0.00798319328 L42.3508403,0.00798319328 Z M42.3348739,3.17731092 C42.3348739,2.98571429 42.2789916,2.81806723 42.1592437,2.67436975 C42.0394958,2.53067227 41.8239496,2.45882353 41.4886555,2.45882353 L40.2352941,2.45882353 L40.2352941,11.7512605 L39.0617647,12.389916 L41.4886555,12.389916 C41.8478992,12.389916 42.0714286,12.310084 42.1752101,12.1504202 C42.2789916,11.9907563 42.3268908,11.8310924 42.3268908,11.6634454 L42.3268908,3.17731092 L42.3348739,3.17731092 Z" id="Shape" fill-rule="nonzero"></path>
                    <path d="M51.6193277,3.67226891 C52.1542017,3.67226891 52.6012605,3.76008403 52.952521,3.93571429 C53.3117647,4.11134454 53.5911765,4.34285714 53.8067227,4.61428571 C54.0222689,4.88571429 54.1659664,5.19705882 54.2617647,5.54033613 C54.3495798,5.88361345 54.397479,6.21890756 54.397479,6.54621849 L54.397479,12.0945378 C54.397479,12.4218487 54.3495798,12.7571429 54.2617647,13.1004202 C54.1739496,13.4436975 54.0222689,13.755042 53.8067227,14.0344538 C53.5911765,14.3138655 53.3117647,14.5453782 52.952521,14.7210084 C52.5932773,14.8966387 52.1542017,14.9844538 51.6193277,14.9844538 L49.4159664,14.9844538 C48.8810924,14.9844538 48.4340336,14.8966387 48.0827731,14.7210084 C47.7235294,14.5453782 47.4361345,14.3138655 47.2205882,14.0344538 C47.005042,13.755042 46.8453782,13.4436975 46.757563,13.1004202 C46.6697479,12.7571429 46.6218487,12.4218487 46.6218487,12.0945378 L46.6218487,6.54621849 C46.6218487,6.21890756 46.6697479,5.88361345 46.757563,5.54033613 C46.8453782,5.19705882 46.9970588,4.88571429 47.2205882,4.61428571 C47.4361345,4.34285714 47.7235294,4.11134454 48.0827731,3.93571429 C48.4420168,3.76008403 48.8810924,3.67226891 49.4159664,3.67226891 L51.6193277,3.67226891 Z M51.6033613,7.0012605 C51.6033613,6.83361345 51.5554622,6.67394958 51.4516807,6.51428571 C51.3478992,6.35462185 51.1163866,6.27478992 50.7651261,6.27478992 L50.2701681,6.27478992 C49.9268908,6.27478992 49.7033613,6.35462185 49.5915966,6.51428571 C49.4798319,6.67394958 49.4239496,6.83361345 49.4239496,7.0012605 L49.4239496,11.6714286 L48.3941176,12.389916 L50.7571429,12.389916 C51.1163866,12.389916 51.339916,12.310084 51.4436975,12.1504202 C51.547479,11.9907563 51.5953782,11.8310924 51.5953782,11.6634454 L51.5953782,7.0012605 L51.6033613,7.0012605 Z" id="Shape" fill-rule="nonzero"></path>
                    <path d="M63.7298319,16.3495798 C63.7298319,17.1319328 63.5542017,17.762605 63.194958,18.2415966 C62.8357143,18.7205882 62.1890756,18.960084 61.2390756,18.960084 L56.3693277,18.960084 L56.3693277,16.4533613 L60.1134454,16.4533613 C60.2331933,16.4533613 60.3768908,16.4294118 60.5285714,16.3894958 C60.6802521,16.3495798 60.7521008,16.1819328 60.7521008,15.8945378 L60.7521008,14.992437 L58.860084,14.992437 C58.4928571,14.992437 58.1336134,14.952521 57.7823529,14.8806723 C57.4310924,14.8088235 57.1277311,14.6571429 56.8563025,14.4495798 C56.5928571,14.2340336 56.3693277,13.9386555 56.2096639,13.547479 C56.0420168,13.1563025 55.9621849,12.637395 55.9621849,11.9907563 L55.9621849,6.5302521 C55.9621849,5.54033613 56.2096639,4.81386555 56.712605,4.35084034 C57.2155462,3.88781513 57.8861345,3.64831933 58.7403361,3.64831933 L63.7378151,3.64831933 L63.7378151,14.992437 L63.7378151,16.3495798 L63.7298319,16.3495798 Z M60.7521008,6.25882353 L59.602521,6.25882353 C59.3869748,6.25882353 59.187395,6.32268908 59.0197479,6.44243697 C58.8521008,6.56218487 58.7642857,6.74579832 58.7642857,6.97731092 L58.7642857,11.6634454 L57.7184874,12.3819328 L60.7521008,12.3819328 L60.7521008,6.25882353 Z" id="Shape" fill-rule="nonzero"></path>
                </g>
            </g>
        </g>
    </g>
</svg>